<svg version="1.2" xmlns="http://www.w3.org/2000/svg" viewBox="0 0 1547 229" width="1547" height="229">
	<title>CSIQ_BIG</title>
	<style>
		.s0 { fill: #ffffff } 
	</style>
	<g id="Page 1">
		<path id="Path 17" fill-rule="evenodd" class="s0" d="m32.1 226.6l95.8 0.4c-5.7-10.2-12.9-19.4-22-27.4q-4.3-3.7-10-3.2l-95.2-0.4c5 11.1 11.8 20.7 21.6 27.4 3.3 2.3 3.7 3.1 9.8 3.2zm121.7-0.3l17.4-0.9c-7.6-27.5-5.1-57.1 13.4-70.6 22.5-16.5 47.5-13 71.2 2.3l13.8-12c-33.4-26.5-72.8-31-100.2-12.5-27.5 18.4-31 56.2-15.6 93.7z"/>
		<path id="Path 18" fill-rule="evenodd" class="s0" d="m48.7 148.7l78.9 40.4c-0.5-11.7-2.7-23.2-7.2-34.4-1.3-2.7-3.5-6-7.4-8l-77.9-41.7c-0.6 12.2-0.3 26.2 5.3 36.7 1.9 3.6 2.8 4.2 8.3 7z"/>
		<path id="Path 19" fill-rule="evenodd" class="s0" d="m84.9 75.8l56.7 60.1c3.3-10.3 5.1-21 4.7-32.2-0.2-2.7-1.1-6.3-3.9-9.3l-55.3-60.9c-4.5 10.4-8.8 22.7-7.2 33.6 0.6 3.6 1.1 4.5 5 8.7z"/>
		<path id="Path 20" fill-rule="evenodd" class="s0" d="m235.2 38.3l-3.8 66.7c9.5-3.6 18.3-8.4 25.9-14.7 1.8-1.7 3.7-4.1 3.9-7.4l5.3-66.3c-10.4 3-22 7.1-28.6 14-2.2 2.3-2.5 3.1-2.7 7.7z"/>
		<path id="Path 21" fill-rule="evenodd" class="s0" d="m159.4 35l21.4 75.9c8-7.2 14.9-15.4 20.1-25.1 1.2-2.5 2.2-5.8 1.1-9.6l-19.6-75.9c-9.3 6.8-19.2 15.2-23.1 25.2-1.4 3.3-1.3 4.3 0.1 9.5z"/>
		<path id="Path 22" fill-rule="evenodd" class="s0" d="m437.2 125.4q-1.4-3.8-3.5-7-4.1-6.7-9.5-9.9c-3.7-2.1-7.9-3.2-12.8-3.1q-8.9 0-15 4.3-6.1 4.2-10.1 12.9-2.4 5-3.7 10.4-1.2 5.4-1.8 11.1c-0.2 3.8-0.4 7.7-0.4 11.7q0 8.6 0.7 15c0.5 4.2 1.1 7.8 1.9 10.8q1.2 4.5 2.7 7.7 1.4 3.2 3.7 6.5 2.2 3.4 5.4 6.1c2 1.9 4.5 3.4 7.3 4.5q4.1 1.7 9.5 1.8 5.8 0 10.8-2.5 5.1-2.4 9.2-7.5 3.1-3.8 5.4-9.2 0.3-0.7 0.6-1.4l19 12.9q-1.1 2.1-2.3 4c-2.1 3.5-4.4 6.5-7 9.2-3.5 3.7-7.2 6.7-11 8.9q-5.7 3.2-11.6 4.6-5.9 1.4-12 1.3-9.2-0.1-16.7-2.2-7.4-2.3-13.2-6-5.9-3.8-10.3-8.6-4.3-4.8-7.4-10-3.9-6.5-6.1-13.2-2.3-6.8-3.3-13.1-1.1-6.3-1.4-11.3c-0.3-3.5-0.4-6.2-0.3-8.3q0.1-12.1 2-21.2 2-9.2 4.9-15.7 2.8-6.5 5.7-10.6 2.8-4.1 4.7-6 5.2-5.7 10.7-9.2c3.6-2.3 7.3-4.1 10.8-5.2q5.4-1.7 10.3-2.4 4.9-0.5 8.8-0.5 5.3 0 11.4 1.1 6 1 12.2 4 6.3 3 12 8.8 3.8 3.7 7 8.9 1.3 2 2.4 4.2zm137.8 101v-103.6h19.6v17.7h0.4q2.6-5.6 6.7-10.1 4.2-4.4 9.8-7 5.6-2.6 12.7-2.6 3.7 0 7.6 0.9c2.6 0.6 5.1 1.5 7.4 2.8q3.6 1.9 6.2 4.8 2.1 2.1 3.9 5.7 1.8 3.6 2.9 8.8 1.2 5.2 1.2 12.3v70.3h-21v-65.2c0-2.1-0.1-4.2-0.2-6.4-0.1-2.1-0.4-4.1-0.9-6.1q-0.8-2.9-2.6-5.4c-1.1-1.5-2.4-2.5-3.7-3.3-1.4-0.7-2.7-1.2-4-1.4-1.3-0.3-2.5-0.4-3.5-0.3q-3.3 0-5.9 0.9-2.5 0.8-4.5 2.2c-1.3 0.9-2.5 1.9-3.4 2.9q-3.3 3.5-4.9 7.5-1.7 4-2.2 8.4-0.6 4.2-0.5 8.5v57.7zm281-144.1v144.1h-19.4l-1.6-13.4q-2.4 4.6-5.8 7.8-4.4 4-9.6 5.8-5.3 1.9-10.6 1.9-4 0-8.6-1.2-4.7-1.2-9.4-4.5-4.7-3.3-9-9.6-1.3-1.8-3-5-1.6-3.1-3.2-7.8c-1.1-3.2-2-6.8-2.7-11.1q-1.1-6.3-1.1-14.5 0-10.6 1.7-18.5 1.7-8 4.3-13.5 2.6-5.6 5.6-9.2 5.6-7 12.2-9.9c4.3-2 8.9-3 13.8-2.9 3.1-0.1 6.2 0.4 9.2 1.3 2.9 1 5.9 2.6 8.9 4.8q2.5 1.8 4.2 3.8 1.8 2 3.1 4.1v-38.2zm-23.1 82.4c-0.1-3.1-0.6-6.3-1.5-9.3-1-3-2.2-5.7-3.8-7.9-3.5-4.9-8.3-7.4-14.2-7.3-3.6 0-6.7 0.8-9.3 2.6-5.4 3.7-8.4 10.6-9.8 17-1 4.6-1.5 9.2-1.5 13.9 0.1 5.4 0.5 9.9 1.1 13.6 0.7 4.3 1.6 8.6 3.5 12.6 3.1 6.6 8.2 11.2 15.6 11.1 6.1 0 11.7-3.4 15.1-8.7 3.1-5 4.9-12 4.9-17.9zm55.9-78.9c7.2 0 13 5.9 13 13 0 7.2-5.8 13-13 13-7.2 0-13-5.8-13-13 0-7.1 5.8-13 13-13zm10 140.7h-21v-103.7h21zm40.3-80l-6.7-16.2c1.8-1.7 3.7-3 5.3-3.9 1.5-1 3.3-1.8 5.7-2.6q3.4-1.3 8.6-2.1c3.4-0.5 7.5-0.8 12.2-0.8 5.8-0.1 11 0.5 15.7 1.6q7 1.8 11.9 5.7 3.9 3.1 6.1 7 2.4 3.8 3.4 8.1 1.2 4.2 1.5 8.6 0.3 4.4 0.3 8.6v43.9c0 2.3 0.1 4.8 0.3 7.4q0.3 3.9 0.8 7.7 0.4 3.8 0.9 7h-21.1q-0.5-3.2-1.1-7.6c-0.4-2.9-0.7-6.3-0.9-10-2.1 4.4-4.5 7.9-7.2 10.6q-4.1 4-8.5 5.9-4.3 2-8.3 2.6-3.9 0.6-6.8 0.6c-6.1-0.1-11.2-1-15.4-2.9q-6.3-2.8-10.1-7.5c-2.5-3-4.4-6.4-5.5-10q-1.7-5.5-1.7-10.9 0-4.9 1.4-9.9c0.9-3.5 2.6-6.7 4.9-9.9q3.6-4.7 9.9-8.3 4.1-2.3 9.1-3.8c3.3-1 6.7-1.8 10.2-2.3 3.4-0.6 6.7-0.9 9.8-1.2q4.6-0.3 7.9-0.4l10.3-0.2c0-0.6 0-4.8 0-5.9q-0.1-1.8-0.4-3.9c-0.3-1.5-0.6-3-1-4.4q-0.7-2.2-1.8-3.9-2-2.7-4.7-4-2.7-1.3-5.6-1.7-2.9-0.4-5.5-0.4-5 0-8.3 0.9c-5.5 1.3-11.4 5-15.6 8.5zm33.3 29.8q-2.2 0-5.5 0.3-3.3 0.2-6.8 0.9-3.5 0.6-6.4 1.7c-3.5 1.4-6.2 3.2-7.9 5.3q-2.7 3.2-3.6 6.6-0.9 3.3-0.8 6 0 2.5 0.6 4.4c0.5 1.2 1 2.3 1.6 3.2q0.8 1.2 1.6 1.9c1.1 1.2 2.3 2.1 3.8 2.8 1.4 0.7 2.8 1.3 4.4 1.6q2.3 0.5 4.5 0.5 3.6 0 6.9-1.2 3.4-1.2 6.3-3.3c1.9-1.5 3.6-3.2 4.9-5q2-2.7 3.3-6.3c0.9-2.3 1.6-4.8 2-7.2q0.7-3.8 0.7-7.1v-5.3z"/>
		<path id="Path 23" fill-rule="evenodd" class="s0" d="m1025 226.5v-103.7h19.6v17.7h0.3q2.7-5.6 6.8-10.1 4.1-4.4 9.7-7 5.7-2.5 12.7-2.6 3.8 0 7.7 0.9c2.6 0.6 5 1.5 7.4 2.8q3.5 1.9 6.2 4.8 2 2.2 3.8 5.7 1.8 3.6 3 8.8 1.1 5.3 1.2 12.4v70.3h-21.1v-65.3q0-3.1-0.1-6.3c-0.1-2.1-0.4-4.2-1-6.2q-0.7-2.9-2.5-5.3c-1.2-1.5-2.4-2.6-3.8-3.4-1.3-0.7-2.6-1.2-3.9-1.4-1.4-0.3-2.5-0.4-3.6-0.3q-3.2 0-5.8 0.9-2.6 0.9-4.6 2.2c-1.3 0.9-2.4 1.9-3.4 3q-3.2 3.4-4.8 7.5-1.7 4-2.3 8.3-0.5 4.2-0.5 8.6v57.7zm173-105l-3.2 2.9c-0.9-4.1-5.3-9.5-8.6-12.3q-4-3.5-9.1-5.2c-3.4-1-7-1.6-10.6-1.5-4.2 0-7.7 0.6-10.4 1.7-2.8 1.1-4.9 2.6-6.5 4.4q-2.4 2.7-3.4 5.8c-0.7 2-1 4-1 5.9q0.1 4.4 2.1 7.5c1.3 2 3 3.6 5.1 4.9 2 1.3 4.1 2.3 6.2 3 2.2 0.8 4 1.3 5.7 1.7l16.9 4.5q4 0.9 8.2 2.2c2.9 0.9 5.7 2 8.5 3.4 2.8 1.4 5.4 3.3 7.9 5.6q3.5 3.1 6.2 7.5c1.8 3 3.2 6.2 4.3 9.9 1.1 3.6 1.7 7.5 1.7 11.6 0 4.5-0.7 8.6-1.9 12.7q-1.9 6-5.1 11c-2.1 3.4-4.6 6.2-7.3 8.6-3.3 2.8-6.8 5-10.7 6.6q-5.8 2.5-11.8 3.6-6.1 1-11.7 1-8.4-0.1-15.2-1.6-6.8-1.6-12.1-4.2c-3.5-1.8-6.5-3.8-9.1-6q-3.5-2.8-6.8-6.9-1.5-1.9-2.9-4.1l15.2-13.9c3 5.9 11.3 11.7 17.6 14.1q3.5 1.3 6.9 1.8c2.2 0.3 4.3 0.5 6.3 0.5q7.5-0.1 12.3-2 4.8-1.8 7.6-4.7c1.7-2 3-4 3.7-6.2q1.1-3.2 1-6 0.1-2.4-0.7-5.1-0.8-2.8-2.8-5.6c-1.3-1.8-3.2-3.6-5.7-5.2q-3.7-2.4-9.6-4l-18.4-4.9q-2.1-0.6-4.8-1.5-2.9-1-5.9-2.3c-2.1-1-4.2-2-6.2-3.3-2-1.2-3.9-2.6-5.6-4.1-1.9-1.6-3.7-3.7-5.5-6.3q-2.7-3.8-4.5-9-1.9-5.3-2-12.1 0.1-7.5 2.1-13.6c1.3-4 3-7.5 5.2-10.5q3.2-4.6 7.1-7.6 4.1-3.3 9.1-5.3 5.1-2 10.7-2.9 5.6-1 11.4-1 5.9 0 11.8 1.2 5.9 1.2 11.2 3.5 5.3 2.4 9.5 6.1c2.2 2 4.3 4.2 6 6.8q2.4 3.4 4.2 7.1zm34.9 38q1.7-7.4 5.1-14 3.4-6.5 8.4-11.5c2.2-2.3 4.9-4.3 7.9-6.2q4.5-2.9 10.4-4.6 5.9-1.7 13.4-1.7 7.5 0 13.4 1.7 5.9 1.7 10.5 4.6c3 1.9 5.6 3.9 7.8 6.2q5 5 8.4 11.5 3.4 6.6 5.1 14 1.7 7.6 1.7 15.5 0 7.9-1.7 15.4-1.7 7.5-5.1 14.1-3.4 6.5-8.4 11.5-3.3 3.4-7.8 6.2-4.6 2.8-10.5 4.6-5.9 1.7-13.4 1.7-7.5 0-13.4-1.7-5.9-1.8-10.4-4.6-4.5-2.8-7.9-6.2-5-5-8.4-11.5-3.4-6.6-5.1-14.1-1.7-7.5-1.7-15.4 0-7.9 1.7-15.5zm23.5 27.9q0.8 5.2 2.1 8.7c0.8 2.3 1.7 4.1 2.4 5.4 0.8 1.3 1.4 2.2 1.8 2.6q1.1 1.4 3.1 3.1 2 1.7 5 3c2.1 0.9 4.5 1.3 7.3 1.4 2.8-0.1 5.3-0.5 7.3-1.4 2-0.9 3.7-1.9 5-3 1.4-1.2 2.4-2.2 3.1-3.1q0.6-0.7 1.8-2.6 1.2-2 2.4-5.4 1.3-3.5 2.2-8.7c0.6-3.5 0.9-7.6 0.9-12.4 0-4.8-0.3-8.9-0.9-12.4q-0.9-5.2-2.2-8.7-1.2-3.5-2.4-5.4-1.2-1.9-1.8-2.6c-0.7-0.9-1.7-1.9-3.1-3.1-1.3-1.2-3-2.1-5-3-2-0.9-4.5-1.3-7.3-1.4-2.8 0.1-5.2 0.5-7.3 1.4-2 0.9-3.7 1.8-5 3q-2 1.7-3.1 3.1c-0.4 0.4-1 1.3-1.8 2.6-0.7 1.3-1.6 3.1-2.4 5.4q-1.3 3.5-2.1 8.7c-0.6 3.5-0.9 7.6-1 12.4 0.1 4.8 0.4 8.9 1 12.4zm106.6-106.6v147.1h-23.7v-130.9z"/>
		<path id="Path 24" fill-rule="evenodd" class="s0" d="m1504.2 122.8v23.4h0.4q0.5-3.7 2.7-8.4c1.4-3.1 3.1-7.1 6.3-10.2 11.4-10.8 21.3-5.7 33.1-0.9l-5.7 20.7c-5.2-2.4-14.2-3.9-19.2-3.6-15.3 1.1-15.3 22.5-15.1 32.9v49.8h-24.2v-103.7zm-813.8 23.7l-6.8-16.2c1.9-1.7 3.7-3.1 5.4-4 1.5-0.9 3.3-1.8 5.7-2.6q3.4-1.2 8.6-2c3.4-0.6 7.5-0.9 12.2-0.9 5.8 0 11 0.5 15.7 1.7q7 1.7 11.9 5.6 3.9 3.2 6.1 7 2.3 3.9 3.4 8.1 1.2 4.2 1.5 8.6 0.3 4.4 0.3 8.6v43.9c0 2.3 0.1 4.8 0.3 7.4q0.3 3.9 0.8 7.8 0.4 3.8 0.9 7h-21.1q-0.5-3.2-1.1-7.7-0.6-4.4-0.9-10-3.2 6.6-7.2 10.6-4.1 4-8.5 5.9-4.3 2-8.3 2.6-3.9 0.6-6.8 0.6c-6.1-0.1-11.2-1-15.4-2.9q-6.3-2.8-10.1-7.4c-2.5-3.1-4.4-6.5-5.5-10.1q-1.7-5.5-1.7-10.9-0.1-4.8 1.4-9.9c0.9-3.4 2.6-6.7 4.9-9.8q3.5-4.7 9.9-8.3 4.1-2.4 9.1-3.9c3.3-1 6.7-1.7 10.2-2.3 3.4-0.5 6.7-0.9 9.7-1.1q4.6-0.4 8-0.5l10.3-0.2c0-0.6 0-4.8 0-5.9q-0.1-1.7-0.5-3.9c-0.2-1.5-0.5-2.9-0.9-4.3q-0.7-2.2-1.8-3.9-2-2.7-4.7-4.1-2.7-1.3-5.6-1.7-2.9-0.4-5.5-0.3-5-0.1-8.4 0.8c-5.5 1.3-11.3 5-15.5 8.6zm33.3 29.8q-2.2 0-5.5 0.2-3.3 0.3-6.8 0.9-3.5 0.6-6.4 1.7c-3.5 1.4-6.2 3.2-8 5.3q-2.6 3.2-3.5 6.6-0.9 3.4-0.8 6 0 2.5 0.6 4.4c0.5 1.3 1 2.3 1.5 3.2q0.9 1.3 1.7 1.9c1.1 1.2 2.3 2.1 3.8 2.9 1.4 0.7 2.8 1.2 4.4 1.5q2.3 0.5 4.5 0.5 3.6 0 6.9-1.2 3.5-1.2 6.3-3.3c1.9-1.4 3.6-3.1 4.9-5q1.9-2.7 3.3-6.3c0.9-2.3 1.5-4.7 2-7.2q0.7-3.8 0.7-7v-5.3zm-233.5-29.9l-6.7-16.1c1.8-1.7 3.7-3.1 5.4-4 1.4-0.9 3.2-1.8 5.6-2.6q3.4-1.2 8.6-2.1c3.4-0.5 7.5-0.8 12.2-0.8 5.8 0 11 0.5 15.7 1.7q7 1.7 11.9 5.6 3.9 3.2 6.1 7 2.4 3.9 3.4 8.1 1.2 4.2 1.5 8.6c0.2 2.9 0.3 5.8 0.3 8.6v43.9c0 2.3 0.1 4.8 0.3 7.4q0.3 3.9 0.8 7.8 0.4 3.8 0.9 7h-21.1q-0.5-3.2-1.1-7.7c-0.4-2.9-0.6-6.3-0.9-10q-3.1 6.6-7.2 10.6-4.1 4-8.5 5.9-4.3 2-8.3 2.6-3.9 0.6-6.8 0.6c-6.1-0.1-11.2-1-15.4-2.9q-6.2-2.8-10.1-7.4c-2.5-3.1-4.3-6.5-5.5-10.1q-1.7-5.5-1.7-10.9 0-4.8 1.4-9.9c0.9-3.4 2.6-6.7 4.9-9.8q3.6-4.7 9.9-8.3 4.1-2.4 9.1-3.9c3.4-1 6.8-1.7 10.2-2.3q5.2-0.8 9.8-1.2 4.6-0.3 7.9-0.4l10.3-0.2c0-0.6 0-4.8 0-5.9q-0.1-1.7-0.4-3.9c-0.3-1.5-0.6-2.9-1-4.4q-0.7-2.1-1.8-3.8-2-2.7-4.7-4.1-2.7-1.3-5.6-1.7-2.9-0.4-5.5-0.3-5-0.1-8.3 0.8c-5.5 1.3-11.4 5-15.6 8.5zm33.3 29.9q-2.2 0-5.5 0.2-3.3 0.3-6.8 0.9-3.5 0.6-6.4 1.7c-3.5 1.4-6.1 3.2-7.9 5.3q-2.7 3.2-3.6 6.6-0.9 3.4-0.8 6 0 2.5 0.6 4.4c0.5 1.3 1 2.3 1.6 3.2q0.8 1.2 1.6 1.9c1.1 1.2 2.4 2.1 3.8 2.9 1.4 0.7 2.8 1.2 4.4 1.5q2.3 0.5 4.5 0.5 3.6 0 7-1.2 3.4-1.2 6.3-3.3c1.9-1.4 3.5-3.1 4.8-5q2-2.7 3.3-6.3c0.9-2.3 1.6-4.7 2-7.2q0.7-3.8 0.7-7v-5.3z"/>
		<path id="Path 25" class="s0" d="m1413.6 137.9q3.4-0.9 8.4-0.8 2.6-0.1 5.5 0.3 2.9 0.4 5.6 1.7 2.7 1.4 4.6 4.1 1.2 1.7 1.9 3.9c0.4 1.4 0.7 2.8 0.9 4.3q0.4 2.2 0.5 3.9c0 1.1 0 1.9 0 2.5v3.4l-10.3 0.2q-3.4 0.1-8 0.5c-3 0.2-6.3 0.6-9.7 1.1-3.5 0.6-6.9 1.3-10.2 2.3q-5 1.5-9.2 3.9-6.3 3.6-9.8 8.3c-2.3 3.1-4 6.4-5 9.8q-1.4 5.1-1.3 9.9-0.1 5.4 1.7 10.9c1.1 3.6 3 7 5.5 10.1q3.8 4.6 10.1 7.4c4.2 1.9 9.3 2.8 15.4 2.9q2.9 0 6.8-0.6 4-0.6 8.3-2.6 4.4-1.9 8.5-5.9 4-4 7.2-10.6c0.2 3.7 0.5 7.1 0.9 10q0.6 4.5 1.1 7.7h21.1q-0.5-3.2-0.9-7-0.5-3.9-0.8-7.8c-0.2-2.6-0.3-5.1-0.3-7.4v-43.9c0-2.8-0.1-5.7-0.3-8.6q-0.4-4.4-1.5-8.6-1.1-4.2-3.4-8.1-2.2-3.8-6.1-7-4.9-3.9-11.9-5.6c-4.7-1.2-9.9-1.7-15.7-1.7q-7.1 0-12.3 0.9-5.1 0.8-8.5 2c-2.4 0.8-4.3 1.7-5.7 2.6-1.7 0.9-3.5 2.3-5.3 4l6.7 16.2c4.2-3.6 10-7.3 15.5-8.6zm27.4 38.2v5.3q0 3.2-0.7 7c-0.5 2.5-1.1 4.9-2 7.2q-1.4 3.6-3.3 6.3c-1.3 1.9-3 3.6-4.9 5q-2.9 2.1-6.3 3.3-3.4 1.2-6.9 1.2-2.2 0-4.5-0.5c-1.6-0.3-3-0.8-4.5-1.5-1.4-0.8-2.6-1.7-3.7-2.9q-0.8-0.6-1.7-1.9c-0.5-0.9-1.1-1.9-1.5-3.2q-0.6-1.9-0.6-4.4-0.1-2.6 0.8-6 0.9-3.4 3.6-6.6c1.7-2.1 4.4-3.9 7.9-5.3q2.9-1.1 6.4-1.7 3.5-0.6 6.8-0.9 3.3-0.2 5.5-0.2z"/>
	</g>
</svg>