<svg version="1.2" xmlns="http://www.w3.org/2000/svg" viewBox="0 0 1513 505" width="1513" height="505">
	<title>jinko-solar-logo-vector-svg</title>
	<style>
		.s0 { fill: #ffffff } 
	</style>
	<path id="Layer" fill-rule="evenodd" class="s0" d="m100.3 428.2c-4.8 27.4-30.9 49.5-58.3 49.5-27.5 0-45.9-22.3-41.1-49.5 4.8-27.4 30.9-49.5 58.1-49.5 27.7-0.3 46.1 22.1 41.3 49.5zm60.7-208.2c0 0-23.4 118.5-34.6 174.7-8.8 43.6-22.1 92.1-75.1 95.6-1.9 0.2-4 0.2-6.4 0.2-14.9 0-29.3-4.5-40.8-12.8 10.9 13.4 28.3 21.1 47.2 24.3 34.6 6.4 75.6-1.4 99.3-15.7 42.7-25.3 55.2-66.9 64-111.9 7.7-38.3 30.6-154.7 30.6-154.7h-84.2z"/>
	<path id="Layer" fill-rule="evenodd" class="s0" d="m307.5 497.7h-81.5l41.1-210.6h81.5zm54.6-275.6c-3.8 22.6-25.6 41-48.2 41-22.7 0-37.9-18.4-33.9-41 4-22.7 25.6-41.1 48.2-41.1 22.7 0.3 37.9 18.4 33.9 41.1zm250.7 104.3c0 3-0.3 5.9-0.8 9.1l-0.3 1.6-31.4 161.1h-81.6l27.7-143c0.3-6.7-1.6-15.7-15.1-18.1-18.4-3.2-40.5-1.1-59.2 18.1l-28 142.7h-81.5l41.1-210.9h81.5l-3.2 16.5c4-2.4 37.8-21.3 73.8-22.6 35.1-1.3 76.2 10.4 77 45.5zm67.6 34.7l34.4 33.5-20.3 103.1h-81.2l54.6-279.1h81.8l-17.9 90.3zm117.2 0l147.6 136.6h-104.4l-140.4-136.6 140.4-142.5h104.4zm407.9-2.9c-7.5 80.7-78.9 146.2-159.6 146.2-80.7 0-140.4-65.5-132.9-146.2 7.2-80.7 78.8-146.2 159.5-146.2 81 0 140.4 65.2 133 146.2zm-74.1 0c3.7-39.7-25.6-71.9-65.3-71.9-39.7 0-74.8 32.2-78.5 71.9-3.8 39.6 25.5 71.9 65.2 71.9 39.4 0 74.9-32.3 78.6-71.9z"/>
	<path id="Layer" fill-rule="evenodd" class="s0" d="m1104.6 132.6c-2.4-4.2-6.1-8.5-10.7-12-4.8-3.4-10.1-6.4-16.2-8.5-6.2-2.1-12.3-3.7-18.9-4.8-19.5-2.9-37.6-9-54.4-18.9-1.3-0.8-2.9-2.4-4.5-4.8q-2.4-3.6-2.4-7.2c0-8.5 1.6-17 4.3-25.5 2.9-8.6 6.6-15.2 10.9-20q10.8-12 38.3-20.8c18.7-6.1 39.2-9 62.4-9 13.8 0 24.5 1 32.2 3.2 7.5 2.1 11.2 5.3 11.2 9.8 0 7.2-1.1 12.8-2.9 16.8-1.9 4-4 6.6-6.4 7.7-2.4 1.3-6.2 3.2-12 5.3-6.1 2.2-11.5 4.3-15.7 6.7-4.6 2.4-8.3 4.5-11.5 6.7-3.2 2.1-5.1 3.2-5.8 3.2l-1.4-1.1c0-1.6 1.6-4.3 5.1-7.5 3.4-3.2 7.7-6.1 12.5-8.8 5.3-2.6 8-4.5 8-5.3 0-1.3-2.9-1.8-8.8-1.8-17.8 0-34.4 1.5-49.3 4.7-15.2 3.2-26.9 7.2-35.7 12.6-8.8 5-13 10.3-13 15.9 0 3.5 1.8 5.6 5.3 7.2 3.7 1.4 11.5 3.8 24 7 12.2 3.1 23.1 7.1 33 11.1 13.9 5.9 24.2 12.3 31.2 18.7 6.6 6.4 10.1 13.6 10.1 21.5 0 5.4-1.3 11-4 16.6-2.7 5.6-6.7 10.6-11.7 15.1-5.1 4.6-10.9 8.3-17.6 11.5-5.6 2.4-12.8 4.5-21.3 6.6-8.5 2.2-17.9 3.8-28 5.1-10.1 1.1-19.7 1.9-28.8 1.9-16.7 0-30.3-1.6-40.4-4.8-10.2-3.2-15.5-8-15.5-14.4 0-2.9 1.9-7.2 5.3-13.6 3.5-6.1 7.5-10.1 12.3-12.2 4-1.6 8-2.4 12-3 3.7-0.2 5.8 0.3 5.8 1.4l-0.5 1-1.1 0.8-1 0.6q-2.8 1.2-4.8 1.6l-3 1.3-1 1.9c0 2.1 9.8 2.9 29.8 2.9 17.3 0 31.4-0.5 42.6-1.9 11-1.3 20.8-3.4 29.3-6.6 8-3.8 15.8-8.3 22.7-13.9zm118.8 16.8c-3.7 1.9-9.3 2.7-16.5 2.4-12.5 14.9-23.5 22.1-33.1 22.1-5.3 0-10.1-1.9-14.6-5.3-4.5-3.5-8-8.6-10.7-14.7-2.6-6.1-4-13-4-20.5 0-6.1 2.2-13 6.2-20.5 4-7.4 9.3-14.6 16-21 6.3-6.4 13.3-11.7 20.7-15.7 7.5-4 14.4-6.2 20.5-6.2 4.6 0 8 0.8 10.7 2.2 2.7 1.3 4 3.2 4 5.8 0 1.9-1.1 4-3.2 6.7 3.5 0.8 6.1 1.8 7.5 3.7 1.3 1.9 1.8 5.1 1.8 9.9q0 6.8-3.2 17.5c-2.1 7-5 13.6-8.8 19.7l2.7 2.7h2.1c1.6 0 3.2-0.5 4.8-1.3 1.6-0.8 3-1.6 4.3-2.7 0.9-0.4 3.1-2 6.3-4.4 0.8-8.1 3.1-17.2 6.5-27.3 4.8-13.6 10.9-27.1 18.6-41 7.7-13.8 15.7-25.8 24-36.2 8.3-10.4 16-17.6 23.2-21.8 2.9-1.6 5-2.7 6.6-2.7 1.9 0 3.5 0.8 4 2.7 0.8 1.6 1.1 4.8 1.1 9 0 13.3-5.3 29.8-16.3 49.3-10.9 19.4-26.1 39.4-45.2 59.6-1.1 5.1-1.4 8.8-1.4 11.5 0 6.1 1.4 11.2 4 14.9 2.7 3.7 6.4 5.9 11.2 5.9 2.4 0 5.1-1.1 7.7-3 2.7-1.8 5.9-4.2 8.8-6.9 2.4-2.4 7.6-7.2 15.1-14.1q0.3-2.8 0.9-5.1c1.1-2.9 2.7-6.1 5.1-9.3 2.6-2.9 6.6-7.2 12.2-12.2 14.7-13.4 28.8-23.2 42.6-29.6 13.9-6.4 24.3-9.6 32-9.6 2.1 0 3.7 0.8 5.6 2.7 1.6 1.6 3.2 3.4 4 5.8 1.1 2.2 1.6 3.8 1.6 5.1 0 1.6-0.8 2.9-2.1 3.7-1.4 0.8-3.8 1.9-7 3 0.6 1.5 1.6 3.4 2.7 5.8 1.1 2.4 1.9 4.3 2.4 5.9 0.5 1.6 0.8 2.6 0.8 4 0 2.4-2.4 6.6-6.9 12.7-4.6 6.4-8 11-9.9 13.9-1.8 2.9-2.9 6.7-2.9 10.9 0 7.2 3.2 10.7 9.8 10.7 6.3 0 16-5.6 28.8-16.6v-1c5.1-6.1 9.1-11.5 11.7-15.7-2.9-1.1-5.3-2.4-6.6-3.8-1.4-1.6-2.2-3.9-2.2-6.9 0-3.4 1.4-7.7 4.3-13.3 2.9-5.3 6.4-10.1 10.7-14.9 4.2-4.5 8-7.5 11.4-8.8l3.7-1.1c1.9 0 3 0.8 3 2.7 0 1.6-1.6 4.8-4.6 9.9 19.8-3 32.3-4.6 37.6-4.6 2.1 0 3.5 0.3 4.3 0.6 1.6 0.8 2.9 2.9 4 6.1 1 3.2 1.6 6.4 1.6 9.3 0 2.1-0.8 4.3-2.7 6.7-1.9 2.4-4.8 5.8-9.1 10.4-5 5.5-9.3 11.4-12.7 17.8-3.5 6.4-5.1 11.2-5.1 14.6 0 4.6 2.9 6.7 8.3 6.7 5.8 0 15.9-5.9 30.6-17.8v9.5c-8 8.3-14.4 15-19.7 19.7-5.1 4.8-9.9 8.8-14.4 11.5-4.3 2.9-8.3 4.3-11.7 4.3-4 0-7.5-1.9-10.2-5.6q-3.9-5.6-3.9-16c0-4 1-8.8 3.1-14.1 2.2-5.3 5.4-10.9 9.4-17.3 4.2-6.2 8.8-12.5 13.8-18.7-2.6 0.6-5.6 1.4-9 1.9-3.5 0.5-7 1.3-10.7 1.9-3.7 0.5-6.6 1.3-8.8 1.6-5.6 11.2-13.5 21.3-23.4 30.4v0.4c-24.3 26.9-41.6 40.5-52.2 40.5-3.8 0-6.4-1-8-3.7-1.6-2.4-2.4-6.1-2.4-10.9 0-7.7 2.6-18.7 8.2-33-14.1 15.4-24.5 26.6-31.1 33.2-7 6.7-12.6 9.9-17.1 9.9q-3.2 0-8-5.6c-3.2-3.7-5.8-8.3-8.5-14.1-1.7-4.2-2.9-8.5-3.4-12.9-19 24.4-34.4 36.6-46.4 36.6q-10.4 0-16-11.2c-3.7-6.9-5.6-15.8-5.8-26.6-5.3 4.6-9.6 7.7-13.1 9.3zm-14.4-58.9c-8 4.8-14.6 9.1-20.5 13.1-5.6 4-10.4 7.7-14.4 11.7q-6 6-8 12c-2.4 10.6-3.7 16.5-3.7 17.3 0 6.4 4.5 9.6 13.3 9.6 4 0 10.9-3.5 20.8-10.7q-2.4-6.8-2.4-12.7c0-6.2 1.3-12.3 3.7-18.7q4-9.2 11.2-21.6zm55.4 10.7q7.6-7.2 14.4-16.8c4.8-6.4 9.1-13 13.3-20 4-7.1 7.5-13.5 9.6-19.1 2.4-5.6 3.5-9.9 3.5-12.8 0-2.1-0.8-3.5-2.4-3.5-0.6 0-1.9 0.6-3.5 1.6-5.8 4.8-12.5 14.1-19.7 28.3-6.9 14.1-12.3 28.2-15.2 42.3zm127.6-14.1c-25 11.4-42.9 21-53.3 29q-15.9 12-15.9 24.8c0 2.9 0.5 5.6 1.6 7.4 1 1.9 2.4 3 4.2 3 1.1 0 2.9-0.6 5.6-2.2 10.1-5.8 19.2-13.8 27.7-23.1 8.3-9.4 18.4-22.4 30.1-38.9z"/>
</svg>