<svg width="588" height="406" viewBox="0 0 588 406" fill="none" xmlns="http://www.w3.org/2000/svg">
<g clip-path="url(#clip0)">
<path d="M161.877 405.863C167.52 398.019 170.823 388.385 170.823 378.007C170.823 351.583 149.408 330.141 122.956 330.141C100.798 330.141 82.1361 345.225 76.7136 365.676C76.1906 365.649 75.6401 365.621 75.1171 365.621C60.9965 365.621 49.5459 377.072 49.5459 391.192C49.5459 391.853 49.5734 392.486 49.6284 393.119C47.9769 392.541 46.2153 392.211 44.3711 392.211C36.4162 392.211 29.8376 398.156 28.8467 405.863H161.877Z" fill="#EADCD8"/>
<path d="M83.7054 371.484H78.1177V405.864H83.7054V371.484Z" fill="#A38D8D"/>
<path d="M80.8973 380.788C97.3002 380.788 110.597 367.491 110.597 351.088C110.597 334.685 97.3002 321.388 80.8973 321.388C64.4944 321.388 51.1973 334.685 51.1973 351.088C51.1973 367.491 64.4944 380.788 80.8973 380.788Z" fill="#BCA7A6"/>
<path d="M23.9748 373.906H18.7725V405.863H23.9748V373.906Z" fill="#A38D8D"/>
<path d="M21.3598 390.422C33.1565 390.422 42.7196 380.859 42.7196 369.062C42.7196 357.265 33.1565 347.702 21.3598 347.702C9.5631 347.702 0 357.265 0 369.062C0 380.859 9.5631 390.422 21.3598 390.422Z" fill="#BCA7A6"/>
<path d="M582.495 405.588H127.884C124.856 405.588 122.378 403.111 122.378 400.083V333.306H588.027V400.083C588 403.111 585.55 405.588 582.495 405.588Z" fill="#DDCDCA"/>
<path d="M403.852 389.201V333.296L214.504 333.296V389.201L403.852 389.201Z" fill="#EADCD8"/>
<path d="M352.464 383.98H222.462C220.948 383.98 219.709 382.742 219.709 381.228V341.261C219.709 339.747 220.948 338.508 222.462 338.508H352.464C353.978 338.508 355.217 339.747 355.217 341.261V381.228C355.217 382.769 353.978 383.98 352.464 383.98Z" fill="#BCA7A6"/>
<path d="M316.076 373.686H258.85C257.639 373.686 256.676 372.722 256.676 371.511V348.858C256.676 347.647 257.639 346.683 258.85 346.683H316.076C317.287 346.683 318.25 347.647 318.25 348.858V371.511C318.25 372.722 317.287 373.686 316.076 373.686Z" fill="#937F7F"/>
<path d="M269.558 349.16H258.851V356.014H269.558V349.16Z" fill="#A38D8D"/>
<path d="M281.202 349.16H270.494V356.014H281.202V349.16Z" fill="#A38D8D"/>
<path d="M292.817 349.16H282.109V356.014H292.817V349.16Z" fill="#A38D8D"/>
<path d="M304.433 349.16H293.726V356.014H304.433V349.16Z" fill="#A38D8D"/>
<path d="M316.076 349.16H305.369V356.014H316.076V349.16Z" fill="#A38D8D"/>
<path d="M269.558 356.757H258.851V363.611H269.558V356.757Z" fill="#A38D8D"/>
<path d="M281.202 356.757H270.494V363.611H281.202V356.757Z" fill="#A38D8D"/>
<path d="M292.817 356.757H282.109V363.611H292.817V356.757Z" fill="#A38D8D"/>
<path d="M304.433 356.757H293.726V363.611H304.433V356.757Z" fill="#A38D8D"/>
<path d="M316.076 356.757H305.369V363.611H316.076V356.757Z" fill="#A38D8D"/>
<path d="M269.558 364.354H258.851V371.208H269.558V364.354Z" fill="#A38D8D"/>
<path d="M281.202 364.354H270.494V371.208H281.202V364.354Z" fill="#A38D8D"/>
<path d="M292.817 364.354H282.109V371.208H292.817V364.354Z" fill="#A38D8D"/>
<path d="M304.433 364.354H293.726V371.208H304.433V364.354Z" fill="#A38D8D"/>
<path d="M316.076 364.354H305.369V371.208H316.076V364.354Z" fill="#A38D8D"/>
<path d="M249.271 383.98H227.471V349.408C227.471 347.894 228.71 346.656 230.224 346.656H246.519C248.033 346.656 249.271 347.894 249.271 349.408V383.98Z" fill="#937F7F"/>
<path d="M347.455 383.98H325.655V349.408C325.655 347.894 326.893 346.656 328.407 346.656H344.702C346.216 346.656 347.455 347.894 347.455 349.408V383.98Z" fill="#937F7F"/>
<path d="M311.779 338.528V282.624H214.504V338.528H311.779Z" fill="#EADCD8"/>
<path d="M306.58 287.834H219.709V333.306H306.58V287.834Z" fill="#DBCCC8"/>
<path d="M403.854 389.199V333.294H355.217V389.199H403.854Z" fill="#EADCD8"/>
<path d="M398.652 338.509H360.419V383.981H398.652V338.509Z" fill="#BAA8A6"/>
<path d="M380.623 335.591H378.476V386.926H380.623V335.591Z" fill="#EADCD8"/>
<path d="M372.999 361.245C372.999 360.667 373.467 360.171 374.073 360.171H385.028C385.606 360.171 386.101 360.639 386.101 361.245C386.101 361.823 385.633 362.318 385.028 362.318H374.073C373.467 362.318 372.999 361.85 372.999 361.245Z" fill="#EADCD8"/>
<path d="M311.793 287.84V231.936L214.518 231.936V287.84H311.793Z" fill="#EADCD8"/>
<path d="M306.579 237.132H219.708V282.604H306.579V237.132Z" fill="#DBCCC8"/>
<path d="M311.78 237.152V181.248L214.505 181.248V237.152L311.78 237.152Z" fill="#EADCD8"/>
<path d="M306.58 186.458H219.709V231.93H306.58V186.458Z" fill="#DBCCC8"/>
<path d="M311.794 186.465V130.561L214.519 130.561V186.465L311.794 186.465Z" fill="#EADCD8"/>
<path d="M306.58 135.755H219.709V181.228H306.58V135.755Z" fill="#DBCCC8"/>
<path d="M311.781 135.777V79.873L214.506 79.873V135.777L311.781 135.777Z" fill="#EADCD8"/>
<path d="M306.58 85.0811H219.709V130.553H306.58V85.0811Z" fill="#DBCCC8"/>
<path d="M403.854 338.526V282.622H306.578V338.526H403.854Z" fill="#EADCD8"/>
<path d="M398.653 287.834H311.782V333.306H398.653V287.834Z" fill="#DBCCC8"/>
<path d="M403.867 287.838V231.934L306.592 231.934V287.838H403.867Z" fill="#EADCD8"/>
<path d="M398.652 237.132H311.781V282.604H398.652V237.132Z" fill="#DBCCC8"/>
<path d="M403.854 237.151V181.247L306.579 181.247V237.151L403.854 237.151Z" fill="#EADCD8"/>
<path d="M398.652 186.458H311.782V231.93H398.652V186.458Z" fill="#DBCCC8"/>
<path d="M403.869 186.463V130.559L306.593 130.559V186.463L403.869 186.463Z" fill="#EADCD8"/>
<path d="M398.652 135.756H311.781V181.228H398.652V135.756Z" fill="#DBCCC8"/>
<path d="M495.943 186.462V130.558L398.668 130.558V186.462L495.943 186.462Z" fill="#EADCD8"/>
<path d="M490.725 135.755H403.854V181.228H490.725V135.755Z" fill="#DBCCC8"/>
<path d="M403.856 135.776V79.8716L306.581 79.8716V135.776L403.856 135.776Z" fill="#EADCD8"/>
<path d="M398.653 85.0811H311.782V130.553H398.653V85.0811Z" fill="#DBCCC8"/>
<path d="M588.002 338.523V282.619H490.727V338.523H588.002Z" fill="#EADCD8"/>
<path d="M582.798 287.834H495.928V333.306H582.798V287.834Z" fill="#DBCCC8"/>
<path d="M588.015 389.211V333.307H490.74V389.211H588.015Z" fill="#EADCD8"/>
<path d="M580.046 383.981H498.68C497.166 383.981 495.928 382.742 495.928 381.228V341.261C495.928 339.747 497.166 338.509 498.68 338.509H580.046C581.56 338.509 582.798 339.747 582.798 341.261V381.228C582.798 382.77 581.56 383.981 580.046 383.981Z" fill="#A38D8D"/>
<path d="M540.766 383.981H506.717V349.409C506.717 347.895 507.956 346.656 509.47 346.656H538.014C539.528 346.656 540.766 347.895 540.766 349.409V383.981Z" fill="#937F7F"/>
<path d="M588.016 287.836V231.932L490.741 231.932V287.836H588.016Z" fill="#EADCD8"/>
<path d="M582.798 237.133H495.927V282.605H582.798V237.133Z" fill="#DBCCC8"/>
<path d="M588.003 237.148V181.244L490.728 181.244V237.148L588.003 237.148Z" fill="#EADCD8"/>
<path d="M582.798 186.458H495.928V231.93H582.798V186.458Z" fill="#DBCCC8"/>
<path d="M588.018 186.461V130.556L490.742 130.556V186.461L588.018 186.461Z" fill="#EADCD8"/>
<path d="M582.798 135.756H495.927V181.228H582.798V135.756Z" fill="#DBCCC8"/>
<path d="M588.004 135.773V79.8687L490.729 79.8687V135.773L588.004 135.773Z" fill="#EADCD8"/>
<path d="M582.798 85.0811H495.927V130.553H582.798V85.0811Z" fill="#DBCCC8"/>
<path d="M490.284 66.2812H404.322V29.0667C404.322 24.4975 408.011 20.8091 412.58 20.8091H482.027C486.596 20.8091 490.284 24.4975 490.284 29.0667V66.2812Z" fill="#CCBBB8"/>
<path d="M457.501 66.2814H437.105V34.8472C437.105 33.3884 438.289 32.1772 439.775 32.1772H454.859C456.318 32.1772 457.529 33.3608 457.529 34.8472V66.2814H457.501Z" fill="#BAA8A6"/>
<path d="M297.083 66.281H244.234L228.076 43.2146C226.81 41.3979 228.104 38.8931 230.333 38.8931H273.604C276.301 38.8931 278.833 40.2143 280.375 42.4163L297.083 66.281Z" fill="#BAA8A6"/>
<path d="M298.734 66.281H245.858L226.7 38.8931H279.549L298.734 66.281Z" fill="#BAA8A6"/>
<path d="M280.76 40.6272H227.884L226.7 38.8931H279.549L280.76 40.6272Z" fill="#CCBBB8"/>
<path d="M286.733 49.1877H233.884L232.673 47.4536H285.55L286.733 49.1877Z" fill="#CCBBB8"/>
<path d="M298.734 66.2813H245.858L244.674 64.5747H297.523L298.734 66.2813Z" fill="#CCBBB8"/>
<path d="M292.734 57.7478H239.885L238.674 56.0137H291.523L292.734 57.7478Z" fill="#CCBBB8"/>
<path d="M235.131 39.1733L234.455 39.647L253.085 66.2547L253.762 65.781L235.131 39.1733Z" fill="#CCBBB8"/>
<path d="M242.697 39.1626L242.021 39.6362L260.652 66.2439L261.328 65.7703L242.697 39.1626Z" fill="#CCBBB8"/>
<path d="M250.242 39.1679L249.565 39.6416L268.196 66.2493L268.872 65.7756L250.242 39.1679Z" fill="#CCBBB8"/>
<path d="M257.785 39.1728L257.109 39.6465L275.739 66.2542L276.416 65.7805L257.785 39.1728Z" fill="#CCBBB8"/>
<path d="M265.352 39.1621L264.676 39.6357L283.306 66.2434L283.983 65.7698L265.352 39.1621Z" fill="#CCBBB8"/>
<path d="M272.897 39.1689L272.22 39.6426L290.851 66.2503L291.527 65.7766L272.897 39.1689Z" fill="#CCBBB8"/>
<path d="M389.156 66.281H336.307L320.149 43.2146C318.883 41.3979 320.177 38.8931 322.406 38.8931H365.676C368.374 38.8931 370.906 40.2143 372.448 42.4163L389.156 66.281Z" fill="#BAA8A6"/>
<path d="M390.807 66.281H337.931L318.773 38.8931H371.622L390.807 66.281Z" fill="#BAA8A6"/>
<path d="M372.833 40.6272H319.957L318.773 38.8931H371.622L372.833 40.6272Z" fill="#CCBBB8"/>
<path d="M378.806 49.1877H325.957L324.746 47.4536H377.623L378.806 49.1877Z" fill="#CCBBB8"/>
<path d="M390.807 66.2813H337.931L336.747 64.5747H389.596L390.807 66.2813Z" fill="#CCBBB8"/>
<path d="M384.807 57.7478H331.958L330.747 56.0137H383.596L384.807 57.7478Z" fill="#CCBBB8"/>
<path d="M327.208 39.1718L326.532 39.6455L345.162 66.2532L345.839 65.7796L327.208 39.1718Z" fill="#CCBBB8"/>
<path d="M334.775 39.1611L334.098 39.6348L352.729 66.2425L353.405 65.7688L334.775 39.1611Z" fill="#CCBBB8"/>
<path d="M342.319 39.166L341.642 39.6396L360.273 66.2474L360.949 65.7737L342.319 39.166Z" fill="#CCBBB8"/>
<path d="M349.863 39.1714L349.186 39.645L367.817 66.2527L368.493 65.7791L349.863 39.1714Z" fill="#CCBBB8"/>
<path d="M357.43 39.1626L356.754 39.6362L375.385 66.2439L376.061 65.7703L357.43 39.1626Z" fill="#CCBBB8"/>
<path d="M364.973 39.1655L364.297 39.6392L382.927 66.2469L383.604 65.7732L364.973 39.1655Z" fill="#CCBBB8"/>
<path d="M572.475 66.281H519.626L503.469 43.2146C502.203 41.3979 503.496 38.8931 505.726 38.8931H548.996C551.694 38.8931 554.226 40.2143 555.767 42.4163L572.475 66.281Z" fill="#BAA8A6"/>
<path d="M574.127 66.281H521.278L502.093 38.8931H554.942L574.127 66.281Z" fill="#BAA8A6"/>
<path d="M556.153 40.6272H503.304L502.093 38.8931H554.942L556.153 40.6272Z" fill="#CCBBB8"/>
<path d="M562.154 49.1877H509.277L508.066 47.4536H560.942L562.154 49.1877Z" fill="#CCBBB8"/>
<path d="M574.127 66.2813H521.278L520.067 64.5747H572.916L574.127 66.2813Z" fill="#CCBBB8"/>
<path d="M568.127 57.7478H515.278L514.066 56.0137H566.916L568.127 57.7478Z" fill="#CCBBB8"/>
<path d="M510.561 39.1562L509.885 39.6299L528.515 66.2376L529.192 65.7639L510.561 39.1562Z" fill="#CCBBB8"/>
<path d="M518.104 39.1577L517.427 39.6313L536.058 66.239L536.734 65.7654L518.104 39.1577Z" fill="#CCBBB8"/>
<path d="M525.648 39.1631L524.971 39.6367L543.602 66.2444L544.278 65.7708L525.648 39.1631Z" fill="#CCBBB8"/>
<path d="M533.214 39.1523L532.538 39.626L551.168 66.2337L551.845 65.76L533.214 39.1523Z" fill="#CCBBB8"/>
<path d="M540.758 39.1577L540.082 39.6313L558.712 66.239L559.389 65.7654L540.758 39.1577Z" fill="#CCBBB8"/>
<path d="M548.302 39.1626L547.625 39.6362L566.256 66.2439L566.933 65.7703L548.302 39.1626Z" fill="#CCBBB8"/>
<path d="M588 85.0815H122.351V74.5667C122.351 69.9975 126.039 66.3091 130.609 66.3091H579.743C584.312 66.3091 588 69.9975 588 74.5667V85.0815Z" fill="#EADCD8"/>
<path d="M495.927 79.8789H398.652V389.211H495.927V79.8789Z" fill="#EADCD8"/>
<path d="M487.973 383.981H406.607C405.093 383.981 403.854 382.742 403.854 381.228V87.8063C403.854 86.2924 405.093 85.0537 406.607 85.0537H487.973C489.486 85.0537 490.725 86.2924 490.725 87.8063V381.228C490.725 382.77 489.486 383.981 487.973 383.981Z" fill="#BAA8A6"/>
<path d="M398.652 389.21H363.172V405.588H398.652V389.21Z" fill="#937F7F"/>
<path d="M393.147 389.21H355.189V394.661H393.147V389.21Z" fill="#BCA7A6"/>
<path d="M382.137 400.138H344.179V405.588H382.137V400.138Z" fill="#BCA7A6"/>
<path d="M387.642 394.661H349.685V400.111H387.642V394.661Z" fill="#A38D8D"/>
<path d="M403.854 338.526V282.622H306.578V338.526H403.854Z" fill="#EADCD8"/>
<path d="M395.9 333.306H314.535C313.021 333.306 311.782 332.068 311.782 330.554V290.587C311.782 289.073 313.021 287.834 314.535 287.834H395.9C397.414 287.834 398.653 289.073 398.653 290.587V330.554C398.653 332.068 397.414 333.306 395.9 333.306Z" fill="#BCA7A6"/>
<path d="M332.234 315.828H329.921V306.469C329.921 303.827 332.068 301.707 334.683 301.707C337.298 301.707 339.445 303.854 339.445 306.469V309.332H337.133V306.469C337.133 305.12 336.032 304.019 334.683 304.019C333.335 304.019 332.234 305.12 332.234 306.469V315.828Z" fill="#F3EEED"/>
<path d="M332.674 333.306H329.921L332.426 326.425H335.179L332.674 333.306Z" fill="#A38D8D"/>
<path d="M377.761 333.306H380.541L378.036 326.425H375.256L377.761 333.306Z" fill="#A38D8D"/>
<path d="M373.081 329.618H337.353C332.922 329.618 329.096 326.563 328.105 322.241L326.316 314.369C326.095 313.46 326.811 312.58 327.747 312.58H382.688C383.624 312.58 384.312 313.46 384.119 314.369L382.33 322.241C381.339 326.535 377.513 329.618 373.081 329.618Z" fill="#F3EEED"/>
<path d="M386.431 315.91H324.003V318.112H386.431V315.91Z" fill="#DDCDCA"/>
<path d="M383.954 315.91H326.481C325.572 315.91 324.829 315.167 324.829 314.258C324.829 313.35 325.572 312.607 326.481 312.607H383.954C384.862 312.607 385.605 313.35 385.605 314.258C385.605 315.167 384.862 315.91 383.954 315.91Z" fill="#F3EEED"/>
<path d="M588.003 237.148V181.244L490.728 181.244V237.148L588.003 237.148Z" fill="#EADCD8"/>
<path d="M498.68 231.93H580.046C581.56 231.93 582.798 230.691 582.798 229.178V189.211C582.798 187.697 581.56 186.458 580.046 186.458H498.68C497.166 186.458 495.928 187.697 495.928 189.211V229.178C495.928 230.691 497.166 231.93 498.68 231.93Z" fill="#BCA7A6"/>
<path d="M564.686 214.452H562.374V205.093C562.374 203.744 561.273 202.643 559.924 202.643C558.575 202.643 557.474 203.744 557.474 205.093V207.956H555.162V205.093C555.162 202.451 557.309 200.331 559.924 200.331C562.539 200.331 564.686 202.478 564.686 205.093V214.452Z" fill="#F3EEED"/>
<path d="M561.906 231.93H564.686L562.181 225.049H559.401L561.906 231.93Z" fill="#A38D8D"/>
<path d="M516.819 231.93H514.067L516.572 225.049H519.324L516.819 231.93Z" fill="#A38D8D"/>
<path d="M521.498 228.242H557.227C561.658 228.242 565.484 225.187 566.475 220.865L568.264 212.993C568.485 212.084 567.769 211.204 566.833 211.204H511.892C510.956 211.204 510.268 212.084 510.461 212.993L512.25 220.865C513.241 225.159 517.067 228.242 521.498 228.242Z" fill="#F3EEED"/>
<path d="M508.163 216.712H570.591V214.51H508.163V216.712Z" fill="#DDCDCA"/>
<path d="M510.626 214.534H568.1C569.008 214.534 569.751 213.791 569.751 212.882C569.751 211.974 569.008 211.231 568.1 211.231H510.626C509.718 211.231 508.975 211.974 508.975 212.882C508.975 213.791 509.718 214.534 510.626 214.534Z" fill="#F3EEED"/>
<path d="M403.856 135.776V79.8716L306.581 79.8716V135.776L403.856 135.776Z" fill="#EADCD8"/>
<path d="M395.9 130.553H314.535C313.021 130.553 311.782 129.315 311.782 127.801V87.8336C311.782 86.3197 313.021 85.0811 314.535 85.0811H395.9C397.414 85.0811 398.653 86.3197 398.653 87.8336V127.801C398.653 129.315 397.414 130.553 395.9 130.553Z" fill="#BCA7A6"/>
<path d="M377.376 111.285H356.043V110.735C356.043 107.707 358.493 105.257 361.521 105.257H371.898C374.926 105.257 377.376 107.707 377.376 110.735V111.285Z" fill="#A38D8D"/>
<path d="M354.392 111.285H333.06V110.735C333.06 107.707 335.509 105.257 338.537 105.257H348.914C351.942 105.257 354.392 107.707 354.392 110.735V111.285Z" fill="#A38D8D"/>
<path d="M378.064 122.516H375.036V130.553H378.064V122.516Z" fill="#EADCD8"/>
<path d="M335.427 122.516H332.399V130.553H335.427V122.516Z" fill="#EADCD8"/>
<path d="M339.914 122.516H336.886V130.553H339.914V122.516Z" fill="#A38D8D"/>
<path d="M373.549 122.516H370.521V130.553H373.549V122.516Z" fill="#A38D8D"/>
<path d="M378.669 127.223H331.738C330.059 127.223 328.683 125.847 328.683 124.167V117.809H381.725V124.167C381.752 125.847 380.376 127.223 378.669 127.223Z" fill="#FFF8F5"/>
<path d="M380.624 120.699H329.784C328.435 120.699 327.307 119.598 327.307 118.222V114.781C327.307 112.854 328.876 111.258 330.83 111.258H379.578C381.504 111.258 383.101 112.827 383.101 114.781V118.222C383.101 119.598 382 120.699 380.624 120.699Z" fill="#EADCD8"/>
<path d="M588.018 186.461V130.556L490.742 130.556V186.461L588.018 186.461Z" fill="#EADCD8"/>
<path d="M580.045 181.256H498.68C497.166 181.256 495.927 180.017 495.927 178.503V138.508C495.927 136.995 497.166 135.756 498.68 135.756H580.045C581.559 135.756 582.798 136.995 582.798 138.508V178.475C582.798 180.017 581.559 181.256 580.045 181.256Z" fill="#BCA7A6"/>
<path d="M561.521 161.988H540.188V161.437C540.188 158.409 542.638 155.959 545.666 155.959H556.043C559.071 155.959 561.521 158.409 561.521 161.437V161.988Z" fill="#A38D8D"/>
<path d="M538.537 161.988H517.205V161.437C517.205 158.409 519.654 155.959 522.682 155.959H533.059C536.087 155.959 538.537 158.409 538.537 161.437V161.988Z" fill="#A38D8D"/>
<path d="M562.208 173.19H559.181V181.228H562.208V173.19Z" fill="#EADCD8"/>
<path d="M519.572 173.19H516.544V181.228H519.572V173.19Z" fill="#EADCD8"/>
<path d="M524.058 173.19H521.03V181.228H524.058V173.19Z" fill="#A38D8D"/>
<path d="M557.694 173.19H554.667V181.228H557.694V173.19Z" fill="#A38D8D"/>
<path d="M562.842 177.897H515.911C514.232 177.897 512.855 176.521 512.855 174.842V168.483H565.897V174.842C565.897 176.548 564.521 177.897 562.842 177.897Z" fill="#FFF8F5"/>
<path d="M564.796 171.374H513.956C512.608 171.374 511.479 170.273 511.479 168.897V165.456C511.479 163.529 513.048 161.933 515.002 161.933H563.75C565.677 161.933 567.273 163.502 567.273 165.456V168.897C567.246 170.273 566.145 171.374 564.796 171.374Z" fill="#EADCD8"/>
<path d="M311.779 338.528V282.624H214.504V338.528H311.779Z" fill="#EADCD8"/>
<path d="M303.827 333.306H222.462C220.948 333.306 219.709 332.068 219.709 330.554V290.587C219.709 289.073 220.948 287.834 222.462 287.834H303.827C305.341 287.834 306.58 289.073 306.58 290.587V330.554C306.58 332.068 305.341 333.306 303.827 333.306Z" fill="#BCA7A6"/>
<path d="M285.302 314.038H263.97V313.488C263.97 310.46 266.42 308.01 269.448 308.01H279.825C282.853 308.01 285.302 310.46 285.302 313.488V314.038Z" fill="#A38D8D"/>
<path d="M262.319 314.038H240.986V313.488C240.986 310.46 243.436 308.01 246.464 308.01H256.841C259.869 308.01 262.319 310.46 262.319 313.488V314.038Z" fill="#A38D8D"/>
<path d="M285.99 325.269H282.962V333.306H285.99V325.269Z" fill="#EADCD8"/>
<path d="M243.326 325.269H240.298V333.306H243.326V325.269Z" fill="#EADCD8"/>
<path d="M247.84 325.269H244.812V333.306H247.84V325.269Z" fill="#A38D8D"/>
<path d="M281.476 325.269H278.448V333.306H281.476V325.269Z" fill="#A38D8D"/>
<path d="M286.596 329.976H239.693C238.013 329.976 236.637 328.599 236.637 326.92V320.562H289.679V326.92C289.651 328.599 288.303 329.976 286.596 329.976Z" fill="#FFF8F5"/>
<path d="M288.55 323.452H237.738C236.389 323.452 235.261 322.351 235.261 320.975V317.534C235.261 315.608 236.83 314.011 238.784 314.011H287.532C289.459 314.011 291.055 315.58 291.055 317.534V320.975C291.027 322.351 289.926 323.452 288.55 323.452Z" fill="#EADCD8"/>
<path d="M588.017 287.835V231.931L490.741 231.931V287.835H588.017Z" fill="#EADCD8"/>
<path d="M580.046 282.604H498.68C497.166 282.604 495.928 281.365 495.928 279.851V239.884C495.928 238.37 497.166 237.132 498.68 237.132H580.046C581.56 237.132 582.798 238.37 582.798 239.884V279.851C582.798 281.393 581.56 282.604 580.046 282.604Z" fill="#BCA7A6"/>
<path d="M558.19 279.026H555.795V282.604H558.19V279.026Z" fill="#A38D8D"/>
<path d="M565.677 279.026H563.282V282.604H565.677V279.026Z" fill="#A38D8D"/>
<path d="M515.774 279.026H513.379V282.604H515.774V279.026Z" fill="#A38D8D"/>
<path d="M523.26 279.026H520.866V282.604H523.26V279.026Z" fill="#A38D8D"/>
<path d="M565.953 271.732H523.729V263.226C523.729 261.382 525.215 259.868 527.087 259.868H562.622C564.466 259.868 565.98 261.355 565.98 263.226V271.732H565.953Z" fill="#A38D8D"/>
<path d="M526.454 279.438H512.773C512.168 279.438 511.672 278.943 511.672 278.337V264.052H523.095C524.94 264.052 526.454 265.538 526.454 267.41V279.438Z" fill="#DDCDCA"/>
<path d="M514.59 279.438H512.14C510.296 279.438 508.782 277.952 508.782 276.08V266.474C508.782 265.125 509.883 264.052 511.204 264.052H512.14C513.489 264.052 514.563 265.153 514.563 266.474V279.438H514.59Z" fill="#F3EEED"/>
<path d="M561.301 271.731H514.59V279.439H561.301V271.731Z" fill="#F3EEED"/>
<path d="M565.952 279.438H553.566L555.162 264.052H565.952C568.155 264.052 569.944 265.841 569.944 268.043V275.42C569.971 277.649 568.182 279.438 565.952 279.438Z" fill="#DDCDCA"/>
<path d="M554.75 279.438H552.3V266.501C552.3 265.153 553.401 264.079 554.722 264.079H555.658C557.007 264.079 558.08 265.18 558.08 266.501V276.108C558.08 277.924 556.594 279.438 554.75 279.438Z" fill="#F3EEED"/>
<path d="M311.794 186.465V130.561L214.519 130.561V186.465L311.794 186.465Z" fill="#EADCD8"/>
<path d="M303.827 181.255H222.462C220.948 181.255 219.709 180.016 219.709 178.502V138.508C219.709 136.994 220.948 135.755 222.462 135.755H303.827C305.341 135.755 306.58 136.994 306.58 138.508V178.475C306.58 180.016 305.341 181.255 303.827 181.255Z" fill="#BCA7A6"/>
<path d="M240.16 163.776H237.848V154.418C237.848 151.775 239.995 149.656 242.61 149.656C245.253 149.656 247.372 151.803 247.372 154.418V157.28H245.06V154.418C245.06 153.069 243.959 151.968 242.61 151.968C241.261 151.968 240.16 153.069 240.16 154.418V163.776Z" fill="#F3EEED"/>
<path d="M240.601 181.255H237.848L240.353 174.346H243.106L240.601 181.255Z" fill="#789E00"/>
<path d="M285.687 181.255H288.467L285.963 174.346H283.183L285.687 181.255Z" fill="#789E00"/>
<path d="M281.008 177.539H245.28C240.848 177.539 237.022 174.484 236.031 170.162L234.242 162.29C234.022 161.382 234.738 160.501 235.674 160.501H290.615C291.55 160.501 292.239 161.382 292.046 162.29L290.257 170.162C289.266 174.484 285.44 177.539 281.008 177.539Z" fill="#96D300"/>
<path d="M294.358 163.832H231.93V166.034H294.358V163.832Z" fill="#789E00"/>
<path d="M291.881 163.831H234.407C233.499 163.831 232.756 163.088 232.756 162.18C232.756 161.272 233.499 160.528 234.407 160.528H291.881C292.789 160.528 293.532 161.272 293.532 162.18C293.532 163.088 292.789 163.831 291.881 163.831Z" fill="#96D300"/>
<path d="M311.78 237.153V181.249L214.505 181.249V237.153L311.78 237.153Z" fill="#EADCD8"/>
<path d="M303.827 231.93H222.461C220.947 231.93 219.708 230.691 219.708 229.178V189.211C219.708 187.697 220.947 186.458 222.461 186.458H303.827C305.34 186.458 306.579 187.697 306.579 189.211V229.178C306.579 230.691 305.34 231.93 303.827 231.93Z" fill="#BCA7A6"/>
<path d="M281.972 228.352H279.577V231.93H281.972V228.352Z" fill="#A38D8D"/>
<path d="M289.459 228.352H287.064V231.93H289.459V228.352Z" fill="#A38D8D"/>
<path d="M239.555 228.352H237.16V231.93H239.555V228.352Z" fill="#A38D8D"/>
<path d="M247.042 228.352H244.647V231.93H247.042V228.352Z" fill="#A38D8D"/>
<path d="M289.734 221.057H247.51V212.552C247.51 210.708 248.996 209.194 250.868 209.194H286.403C288.247 209.194 289.761 210.68 289.761 212.552V221.057H289.734Z" fill="#A38D8D"/>
<path d="M250.234 228.737H236.554C235.949 228.737 235.453 228.242 235.453 227.636V213.35H246.876C248.72 213.35 250.234 214.836 250.234 216.708V228.737Z" fill="#DDCDCA"/>
<path d="M238.371 228.737H235.894C234.05 228.737 232.536 227.251 232.536 225.379V215.8C232.536 214.451 233.637 213.378 234.958 213.378H235.894C237.243 213.378 238.316 214.479 238.316 215.8V228.737H238.371Z" fill="#F3EEED"/>
<path d="M285.082 221.057H238.371V228.764H285.082V221.057Z" fill="#F3EEED"/>
<path d="M289.734 228.737H277.347L278.944 213.35H289.734C291.936 213.35 293.725 215.139 293.725 217.341V224.718C293.725 226.948 291.936 228.737 289.734 228.737Z" fill="#DDCDCA"/>
<path d="M278.531 228.737H276.081V215.8C276.081 214.451 277.182 213.378 278.503 213.378H279.439C280.788 213.378 281.861 214.479 281.861 215.8V225.407C281.861 227.251 280.375 228.737 278.531 228.737Z" fill="#F3EEED"/>
<path d="M403.868 287.839V231.935L306.593 231.935V287.839H403.868Z" fill="#EADCD8"/>
<path d="M395.9 282.604H314.534C313.02 282.604 311.782 281.366 311.782 279.852V239.885C311.782 238.371 313.02 237.132 314.534 237.132H395.9C397.414 237.132 398.652 238.371 398.652 239.885V279.852C398.652 281.393 397.414 282.604 395.9 282.604Z" fill="#BCA7A6"/>
<path d="M374.044 279.026H371.649V282.604H374.044V279.026Z" fill="#A38D8D"/>
<path d="M381.531 279.026H379.136V282.604H381.531V279.026Z" fill="#A38D8D"/>
<path d="M331.628 279.026H329.233V282.604H331.628V279.026Z" fill="#A38D8D"/>
<path d="M339.114 279.026H336.72V282.604H339.114V279.026Z" fill="#A38D8D"/>
<path d="M381.807 271.732H339.583V263.226C339.583 261.382 341.069 259.868 342.941 259.868H378.476C380.32 259.868 381.834 261.355 381.834 263.226V271.732H381.807Z" fill="#A38D8D"/>
<path d="M342.308 279.438H328.627C328.022 279.438 327.526 278.943 327.526 278.337V264.052H338.949C340.794 264.052 342.308 265.538 342.308 267.41V279.438Z" fill="#DDCDCA"/>
<path d="M330.444 279.438H327.994C326.15 279.438 324.636 277.952 324.636 276.08V266.474C324.636 265.125 325.737 264.052 327.058 264.052H327.994C329.343 264.052 330.417 265.153 330.417 266.474V279.438H330.444Z" fill="#F3EEED"/>
<path d="M377.155 271.731H330.444V279.439H377.155V271.731Z" fill="#F3EEED"/>
<path d="M381.806 279.438H369.42L371.016 264.052H381.806C384.008 264.052 385.798 265.841 385.798 268.043V275.42C385.798 277.649 384.036 279.438 381.806 279.438Z" fill="#DDCDCA"/>
<path d="M370.604 279.438H368.154V266.501C368.154 265.153 369.255 264.079 370.576 264.079H371.512C372.861 264.079 373.934 265.18 373.934 266.501V276.108C373.934 277.924 372.448 279.438 370.604 279.438Z" fill="#F3EEED"/>
<path d="M403.854 237.151V181.247L306.579 181.247V237.151L403.854 237.151Z" fill="#EADCD8"/>
<path d="M395.9 231.93H314.534C313.02 231.93 311.782 230.691 311.782 229.178V189.211C311.782 187.697 313.02 186.458 314.534 186.458H395.9C397.414 186.458 398.652 187.697 398.652 189.211V229.178C398.652 230.691 397.414 231.93 395.9 231.93Z" fill="#BCA7A6"/>
<path d="M364.631 205.698C364.631 211.561 360.419 212.47 355.245 212.47C350.042 212.47 345.858 211.561 345.858 205.698H364.631Z" fill="#A38D8D"/>
<path d="M341.041 231.93H339.06L342.363 213.103H344.372L341.041 231.93Z" fill="#F3EEED"/>
<path d="M344.785 231.93H342.775L346.106 213.103H348.088L344.785 231.93Z" fill="#A38D8D"/>
<path d="M369.393 231.93H371.374L368.071 213.103H366.062L369.393 231.93Z" fill="#F3EEED"/>
<path d="M365.677 231.93H367.659L364.328 213.103H362.346L365.677 231.93Z" fill="#A38D8D"/>
<path d="M373.329 214.617H337.105C335.399 214.617 334.022 213.24 334.022 211.534H376.412C376.412 213.268 375.036 214.617 373.329 214.617Z" fill="#F3EEED"/>
<path d="M336.692 231.93H334.875L332.068 221.525H333.912L336.692 231.93Z" fill="#F2F2F2"/>
<path d="M322.049 231.93H323.893L326.673 221.525H324.829L322.049 231.93Z" fill="#F2F2F2"/>
<path d="M325.021 231.93H326.866L329.646 221.525H327.829L325.021 231.93Z" fill="#A38D8D"/>
<path d="M325.021 220.535H323.177L320.7 211.258C320.562 210.708 320.975 210.13 321.553 210.13C321.966 210.13 322.296 210.405 322.407 210.79L325.021 220.535Z" fill="#F2F2F2"/>
<path d="M334.187 222.516H325.159C324.058 222.516 323.177 221.636 323.177 220.535H334.187C334.738 220.535 335.178 220.975 335.178 221.526C335.178 222.076 334.738 222.516 334.187 222.516Z" fill="#F2F2F2"/>
<path d="M373.742 231.93H375.586L378.366 221.525H376.522L373.742 231.93Z" fill="#F2F2F2"/>
<path d="M388.385 231.93H386.568L383.761 221.525H385.605L388.385 231.93Z" fill="#F2F2F2"/>
<path d="M385.412 231.93H383.568L380.788 221.525H382.632L385.412 231.93Z" fill="#A38D8D"/>
<path d="M385.413 220.535H387.257L389.734 211.258C389.872 210.708 389.459 210.13 388.881 210.13C388.468 210.13 388.138 210.405 388.028 210.79L385.413 220.535Z" fill="#F2F2F2"/>
<path d="M376.246 222.516H385.275C386.376 222.516 387.256 221.636 387.256 220.535H376.246C375.696 220.535 375.255 220.975 375.255 221.526C375.255 222.076 375.696 222.516 376.246 222.516Z" fill="#F2F2F2"/>
<path d="M311.781 135.777V79.873L214.506 79.873V135.777L311.781 135.777Z" fill="#EADCD8"/>
<path d="M303.827 130.553H222.461C220.947 130.553 219.708 129.315 219.708 127.801V87.8336C219.708 86.3197 220.947 85.0811 222.461 85.0811H303.827C305.34 85.0811 306.579 86.3197 306.579 87.8336V127.801C306.579 129.315 305.34 130.553 303.827 130.553Z" fill="#BCA7A6"/>
<path d="M272.53 104.321C272.53 110.184 268.318 111.093 263.144 111.093C257.969 111.093 253.757 110.184 253.757 104.321H272.53Z" fill="#A38D8D"/>
<path d="M248.968 130.554H246.986L250.289 111.726H252.299L248.968 130.554Z" fill="#F3EEED"/>
<path d="M252.711 130.554H250.702L254.033 111.726H256.015L252.711 130.554Z" fill="#A38D8D"/>
<path d="M277.319 130.554H279.301L275.998 111.726H273.989L277.319 130.554Z" fill="#F3EEED"/>
<path d="M273.604 130.554H275.585L272.255 111.726H270.273L273.604 130.554Z" fill="#A38D8D"/>
<path d="M281.256 113.267H245.032C243.325 113.267 241.949 111.891 241.949 110.185H284.339C284.339 111.891 282.962 113.267 281.256 113.267Z" fill="#F3EEED"/>
<path d="M244.619 130.553H242.802L239.995 120.148H241.839L244.619 130.553Z" fill="#F2F2F2"/>
<path d="M229.976 130.553H231.792L234.6 120.148H232.756L229.976 130.553Z" fill="#F2F2F2"/>
<path d="M232.948 130.553H234.792L237.573 120.148H235.728L232.948 130.553Z" fill="#A38D8D"/>
<path d="M232.948 119.158H231.104L228.627 109.881C228.489 109.331 228.902 108.753 229.48 108.753C229.893 108.753 230.223 109.028 230.333 109.414L232.948 119.158Z" fill="#F2F2F2"/>
<path d="M242.114 121.14H233.086C231.985 121.14 231.104 120.259 231.104 119.158H242.114C242.665 119.158 243.105 119.598 243.105 120.149C243.105 120.699 242.665 121.14 242.114 121.14Z" fill="#F2F2F2"/>
<path d="M281.668 130.553H283.513L286.293 120.148H284.448L281.668 130.553Z" fill="#F2F2F2"/>
<path d="M296.312 130.553H294.495L291.688 120.148H293.532L296.312 130.553Z" fill="#F2F2F2"/>
<path d="M293.339 130.553H291.495L288.715 120.148H290.559L293.339 130.553Z" fill="#A38D8D"/>
<path d="M293.339 119.158H295.184L297.661 109.881C297.799 109.331 297.386 108.753 296.808 108.753C296.395 108.753 296.064 109.028 295.954 109.414L293.339 119.158Z" fill="#F2F2F2"/>
<path d="M284.174 121.14H293.202C294.303 121.14 295.184 120.259 295.184 119.158H284.174C283.623 119.158 283.183 119.598 283.183 120.149C283.183 120.699 283.623 121.14 284.174 121.14Z" fill="#F2F2F2"/>
<path d="M588.002 338.523V282.619H490.727V338.523H588.002Z" fill="#EADCD8"/>
<path d="M580.045 333.306H498.68C497.166 333.306 495.927 332.068 495.927 330.554V290.587C495.927 289.073 497.166 287.834 498.68 287.834H580.045C581.559 287.834 582.798 289.073 582.798 290.587V330.554C582.798 332.068 581.559 333.306 580.045 333.306Z" fill="#BCA7A6"/>
<path d="M548.777 307.075C548.777 312.938 544.565 313.846 539.391 313.846C534.216 313.846 530.004 312.938 530.004 307.075H548.777Z" fill="#A38D8D"/>
<path d="M525.187 333.307H523.206L526.536 314.479H528.518L525.187 333.307Z" fill="#F3EEED"/>
<path d="M528.931 333.307H526.921L530.252 314.479H532.234L528.931 333.307Z" fill="#A38D8D"/>
<path d="M553.538 333.307H555.548L552.217 314.479H550.235L553.538 333.307Z" fill="#F3EEED"/>
<path d="M549.823 333.307H551.805L548.474 314.479H546.492L549.823 333.307Z" fill="#A38D8D"/>
<path d="M557.502 315.993H521.279C519.572 315.993 518.196 314.617 518.196 312.91H560.585C560.558 314.644 559.181 315.993 557.502 315.993Z" fill="#F3EEED"/>
<path d="M520.839 333.307H519.022L516.214 322.902H518.059L520.839 333.307Z" fill="#F2F2F2"/>
<path d="M506.195 333.307H508.039L510.819 322.902H508.975L506.195 333.307Z" fill="#F2F2F2"/>
<path d="M509.167 333.307H511.012L513.792 322.902H511.975L509.167 333.307Z" fill="#A38D8D"/>
<path d="M509.167 321.911H507.323L504.846 312.635C504.708 312.084 505.121 311.506 505.699 311.506C506.112 311.506 506.442 311.782 506.553 312.167L509.167 321.911Z" fill="#F2F2F2"/>
<path d="M518.361 323.893H509.332C508.231 323.893 507.351 323.012 507.351 321.911H518.361C518.911 321.911 519.352 322.352 519.352 322.902C519.324 323.453 518.884 323.893 518.361 323.893Z" fill="#F2F2F2"/>
<path d="M557.888 333.307H559.732L562.512 322.902H560.668L557.888 333.307Z" fill="#F2F2F2"/>
<path d="M572.559 333.307H570.715L567.935 322.902H569.751L572.559 333.307Z" fill="#F2F2F2"/>
<path d="M569.559 333.307H567.715L564.935 322.902H566.779L569.559 333.307Z" fill="#A38D8D"/>
<path d="M569.559 321.911H571.403L573.88 312.635C574.018 312.084 573.605 311.506 573.027 311.506C572.614 311.506 572.284 311.782 572.174 312.167L569.559 321.911Z" fill="#F2F2F2"/>
<path d="M560.393 323.893H569.421C570.522 323.893 571.403 323.012 571.403 321.911H560.393C559.842 321.911 559.402 322.352 559.402 322.902C559.402 323.453 559.842 323.893 560.393 323.893Z" fill="#F2F2F2"/>
<path d="M588.004 135.773V79.8687L490.729 79.8687V135.773L588.004 135.773Z" fill="#EADCD8"/>
<path d="M580.045 130.553H498.68C497.166 130.553 495.927 129.315 495.927 127.801V87.8336C495.927 86.3197 497.166 85.0811 498.68 85.0811H580.045C581.559 85.0811 582.798 86.3197 582.798 87.8336V127.801C582.798 129.315 581.559 130.553 580.045 130.553Z" fill="#BCA7A6"/>
<path d="M544.73 112.882H534.023L537.436 108.23H541.317L544.73 112.882Z" fill="#A38D8D"/>
<path d="M553.291 110.267H525.462C524.912 110.267 524.444 109.799 524.444 109.248V91.935C524.444 91.3844 524.912 90.9165 525.462 90.9165H553.291C553.841 90.9165 554.309 91.3844 554.309 91.935V109.248C554.309 109.827 553.841 110.267 553.291 110.267Z" fill="#EADCD8"/>
<path d="M552.41 92.5679H526.343V108.23H552.41V92.5679Z" fill="#96D300"/>
<path d="M521.911 124.882H512.69V126.699H521.911V124.882Z" fill="#A38D8D"/>
<path d="M513.021 130.553H510.929L515.195 114.643H517.287L513.021 130.553Z" fill="#A38D8D"/>
<path d="M521.554 130.553H523.646L519.379 114.643H517.287L521.554 130.553Z" fill="#A38D8D"/>
<path d="M566.062 124.882H556.841V126.699H566.062V124.882Z" fill="#A38D8D"/>
<path d="M557.199 130.553H555.107L559.374 114.643H561.466L557.199 130.553Z" fill="#A38D8D"/>
<path d="M565.705 130.553H567.797L563.53 114.643H561.466L565.705 130.553Z" fill="#A38D8D"/>
<path d="M565.76 116.405H512.993C511.039 116.405 509.442 114.808 509.442 112.854H569.283C569.283 114.836 567.714 116.405 565.76 116.405Z" fill="#F3EEED"/>
<path d="M311.793 287.84V231.936L214.518 231.936V287.84H311.793Z" fill="#EADCD8"/>
<path d="M303.827 282.604H222.462C220.948 282.604 219.709 281.366 219.709 279.852V239.885C219.709 238.371 220.948 237.132 222.462 237.132H303.827C305.341 237.132 306.58 238.371 306.58 239.885V279.852C306.58 281.393 305.341 282.604 303.827 282.604Z" fill="#BCA7A6"/>
<path d="M268.512 264.933H257.777L261.218 260.281H265.072L268.512 264.933Z" fill="#A38D8D"/>
<path d="M277.072 262.346H249.217C248.666 262.346 248.198 261.878 248.198 261.327V244.014C248.198 243.463 248.666 242.995 249.217 242.995H277.045C277.595 242.995 278.063 243.463 278.063 244.014V261.327C278.091 261.878 277.623 262.346 277.072 262.346Z" fill="#EADCD8"/>
<path d="M276.192 244.619H250.125V260.281H276.192V244.619Z" fill="#A38D8D"/>
<path d="M245.666 276.961H236.445V278.778H245.666V276.961Z" fill="#A38D8D"/>
<path d="M236.802 282.604H234.71L238.977 266.722H241.069L236.802 282.604Z" fill="#A38D8D"/>
<path d="M245.335 282.604H247.4L243.161 266.722H241.069L245.335 282.604Z" fill="#A38D8D"/>
<path d="M289.845 276.961H280.624V278.778H289.845V276.961Z" fill="#A38D8D"/>
<path d="M280.981 282.604H278.889L283.156 266.722H285.22L280.981 282.604Z" fill="#A38D8D"/>
<path d="M289.486 282.604H291.578L287.312 266.722H285.22L289.486 282.604Z" fill="#A38D8D"/>
<path d="M289.514 268.483H236.775C234.821 268.483 233.224 266.887 233.224 264.933H293.065C293.065 266.887 291.496 268.483 289.514 268.483Z" fill="#F3EEED"/>
<path d="M403.869 186.463V130.559L306.593 130.559V186.463L403.869 186.463Z" fill="#EADCD8"/>
<path d="M395.899 181.255H314.534C313.02 181.255 311.781 180.016 311.781 178.502V138.508C311.781 136.994 313.02 135.755 314.534 135.755H395.899C397.413 135.755 398.652 136.994 398.652 138.508V178.475C398.652 180.016 397.413 181.255 395.899 181.255Z" fill="#BCA7A6"/>
<path d="M360.584 163.557H349.877L353.29 158.905H357.144L360.584 163.557Z" fill="#A38D8D"/>
<path d="M369.145 160.969H341.316C340.766 160.969 340.298 160.501 340.298 159.951V142.637C340.298 142.087 340.766 141.619 341.316 141.619H369.145C369.695 141.619 370.163 142.087 370.163 142.637V159.951C370.163 160.501 369.695 160.969 369.145 160.969Z" fill="#EADCD8"/>
<path d="M368.264 143.243H342.197V158.905H368.264V143.243Z" fill="#A38D8D"/>
<path d="M337.738 175.584H328.517V177.401H337.738V175.584Z" fill="#A38D8D"/>
<path d="M328.875 181.255H326.783L331.049 165.345H333.141L328.875 181.255Z" fill="#A38D8D"/>
<path d="M337.408 181.255H339.472L335.233 165.345H333.141L337.408 181.255Z" fill="#A38D8D"/>
<path d="M381.917 175.584H372.696V177.401H381.917V175.584Z" fill="#A38D8D"/>
<path d="M373.053 181.255H370.961L375.228 165.345H377.292L373.053 181.255Z" fill="#A38D8D"/>
<path d="M381.559 181.255H383.651L379.384 165.345H377.292L381.559 181.255Z" fill="#A38D8D"/>
<path d="M381.586 167.107H328.82C326.866 167.107 325.269 165.51 325.269 163.556H385.109C385.137 165.51 383.568 167.107 381.586 167.107Z" fill="#F3EEED"/>
<path d="M495.927 79.8789H398.652V135.783H495.927V79.8789Z" fill="#EADCD8"/>
<path d="M441.95 130.553H406.635C405.121 130.553 403.882 129.315 403.882 127.801V87.8336C403.882 86.3197 405.121 85.0811 406.635 85.0811H441.95C443.464 85.0811 444.703 86.3197 444.703 87.8336V127.801C444.703 129.315 443.464 130.553 441.95 130.553Z" fill="#A38D8D"/>
<path d="M487.973 130.553H452.657C451.143 130.553 449.905 129.315 449.905 127.801V87.8336C449.905 86.3197 451.143 85.0811 452.657 85.0811H487.973C489.486 85.0811 490.725 86.3197 490.725 87.8336V127.801C490.725 129.315 489.486 130.553 487.973 130.553Z" fill="#A38D8D"/>
<path d="M418.25 120.947H408.947V117.672H414.975V109.992H422.627V102.34H430.307V94.688H439.583V97.9635H433.582V105.616H425.93V113.295H418.25V120.947Z" fill="#FFF8F5"/>
<path d="M449.905 79.8789H444.703V135.783H449.905V79.8789Z" fill="#EADCD8"/>
<path d="M495.927 130.553H398.652V186.458H495.927V130.553Z" fill="#EADCD8"/>
<path d="M441.95 181.256H406.635C405.121 181.256 403.882 180.017 403.882 178.503V138.508C403.882 136.995 405.121 135.756 406.635 135.756H441.95C443.464 135.756 444.703 136.995 444.703 138.508V178.475C444.703 180.017 443.464 181.256 441.95 181.256Z" fill="#A38D8D"/>
<path d="M487.973 181.256H452.657C451.143 181.256 449.905 180.017 449.905 178.503V138.508C449.905 136.995 451.143 135.756 452.657 135.756H487.973C489.486 135.756 490.725 136.995 490.725 138.508V178.475C490.725 180.017 489.486 181.256 487.973 181.256Z" fill="#A38D8D"/>
<path d="M418.25 171.622H408.947V168.346H414.975V160.694H422.627V153.042H430.307V145.362H439.583V148.665H433.582V156.317H425.93V163.97H418.25V171.622Z" fill="#FFF8F5"/>
<path d="M449.905 130.553H444.703V186.458H449.905V130.553Z" fill="#EADCD8"/>
<path d="M495.927 181.255H398.652V237.16H495.927V181.255Z" fill="#EADCD8"/>
<path d="M441.95 231.93H406.635C405.121 231.93 403.882 230.691 403.882 229.178V189.211C403.882 187.697 405.121 186.458 406.635 186.458H441.95C443.464 186.458 444.703 187.697 444.703 189.211V229.178C444.703 230.691 443.464 231.93 441.95 231.93Z" fill="#A38D8D"/>
<path d="M487.973 231.93H452.657C451.143 231.93 449.905 230.691 449.905 229.178V189.211C449.905 187.697 451.143 186.458 452.657 186.458H487.973C489.486 186.458 490.725 187.697 490.725 189.211V229.178C490.725 230.691 489.486 231.93 487.973 231.93Z" fill="#A38D8D"/>
<path d="M418.25 222.324H408.947V219.048H414.975V211.369H422.627V203.717H430.307V196.064H439.583V199.34H433.582V206.992H425.93V214.672H418.25V222.324Z" fill="#FFF8F5"/>
<path d="M449.905 181.255H444.703V237.16H449.905V181.255Z" fill="#EADCD8"/>
<path d="M495.927 231.93H398.652V287.834H495.927V231.93Z" fill="#EADCD8"/>
<path d="M441.95 282.604H406.635C405.121 282.604 403.882 281.366 403.882 279.852V239.885C403.882 238.371 405.121 237.132 406.635 237.132H441.95C443.464 237.132 444.703 238.371 444.703 239.885V279.852C444.703 281.393 443.464 282.604 441.95 282.604Z" fill="#A38D8D"/>
<path d="M487.973 282.604H452.657C451.143 282.604 449.905 281.366 449.905 279.852V239.885C449.905 238.371 451.143 237.132 452.657 237.132H487.973C489.486 237.132 490.725 238.371 490.725 239.885V279.852C490.725 281.393 489.486 282.604 487.973 282.604Z" fill="#A38D8D"/>
<path d="M418.25 272.998H408.947V269.722H414.975V262.07H422.627V254.39H430.307V246.738H439.583V250.041H433.582V257.693H425.93V265.345H418.25V272.998Z" fill="#FFF8F5"/>
<path d="M449.905 231.93H444.703V287.834H449.905V231.93Z" fill="#EADCD8"/>
<path d="M495.927 282.604H398.652V338.508H495.927V282.604Z" fill="#EADCD8"/>
<path d="M441.95 333.306H406.635C405.121 333.306 403.882 332.068 403.882 330.554V290.587C403.882 289.073 405.121 287.834 406.635 287.834H441.95C443.464 287.834 444.703 289.073 444.703 290.587V330.554C444.703 332.068 443.464 333.306 441.95 333.306Z" fill="#A38D8D"/>
<path d="M487.973 333.306H452.657C451.143 333.306 449.905 332.068 449.905 330.554V290.587C449.905 289.073 451.143 287.834 452.657 287.834H487.973C489.486 287.834 490.725 289.073 490.725 290.587V330.554C490.725 332.068 489.486 333.306 487.973 333.306Z" fill="#A38D8D"/>
<path d="M418.25 323.7H408.947V320.397H414.975V312.745H422.627V305.093H430.307V297.44H439.583V300.716H433.582V308.368H425.93V316.048H418.25V323.7Z" fill="#FFF8F5"/>
<path d="M449.905 282.604H444.703V338.508H449.905V282.604Z" fill="#EADCD8"/>
<path d="M495.927 333.306H398.652V389.21H495.927V333.306Z" fill="#EADCD8"/>
<path d="M441.95 383.981H406.635C405.121 383.981 403.882 382.742 403.882 381.228V341.261C403.882 339.747 405.121 338.509 406.635 338.509H441.95C443.464 338.509 444.703 339.747 444.703 341.261V381.228C444.703 382.77 443.464 383.981 441.95 383.981Z" fill="#A38D8D"/>
<path d="M487.973 383.981H452.657C451.143 383.981 449.905 382.742 449.905 381.228V341.261C449.905 339.747 451.143 338.509 452.657 338.509H487.973C489.486 338.509 490.725 339.747 490.725 341.261V381.228C490.725 382.77 489.486 383.981 487.973 383.981Z" fill="#A38D8D"/>
<path d="M418.25 374.374H408.947V371.099H414.975V363.446H422.627V355.767H430.307V348.115H439.583V351.418H433.582V359.07H425.93V366.722H418.25V374.374Z" fill="#FFF8F5"/>
<path d="M449.905 333.306H444.703V389.21H449.905V333.306Z" fill="#EADCD8"/>
<path d="M487.973 383.981H452.657C451.143 383.981 449.905 382.742 449.905 381.228V87.8063C449.905 86.2924 451.143 85.0537 452.657 85.0537H487.973C489.486 85.0537 490.725 86.2924 490.725 87.8063V381.228C490.725 382.77 489.486 383.981 487.973 383.981Z" fill="#A38D8D"/>
<path d="M475.889 141.866H464.769C463.255 141.866 462.016 140.628 462.016 139.114V132.398C462.016 130.884 463.255 129.645 464.769 129.645H475.889C477.403 129.645 478.642 130.884 478.642 132.398V139.114C478.642 140.628 477.403 141.866 475.889 141.866Z" fill="#DBCCC8"/>
<path d="M482.825 181.255H457.777C456.263 181.255 455.024 180.016 455.024 178.502V138.508C455.024 136.994 456.263 135.755 457.777 135.755H482.825C484.339 135.755 485.578 136.994 485.578 138.508V178.475C485.578 180.016 484.367 181.255 482.825 181.255Z" fill="#EADCD8"/>
<path d="M481.752 178.695H458.878C458.108 178.695 457.502 178.09 457.502 177.319V139.692C457.502 138.921 458.108 138.315 458.878 138.315H481.752C482.523 138.315 483.128 138.921 483.128 139.692V177.319C483.128 178.09 482.523 178.695 481.752 178.695Z" fill="#CCBBB8"/>
<path d="M477.1 155.711L470.302 148.94L463.53 155.711H477.1Z" fill="#FFF8F5"/>
<path d="M477.1 161.216L470.302 167.988L463.53 161.216H477.1Z" fill="#FFF8F5"/>
<path d="M474.292 85.0811H473.742V130.553H474.292V85.0811Z" fill="#BCA7A6"/>
<path d="M466.888 85.0811H466.337V130.553H466.888V85.0811Z" fill="#BCA7A6"/>
<path d="M475.889 95.596H464.769C463.255 95.596 462.016 94.3573 462.016 92.8434V85.0537H478.642V92.8434C478.642 94.3849 477.403 95.596 475.889 95.596Z" fill="#DBCCC8"/>
<path d="M470.301 100.027C472.977 100.027 475.146 97.8584 475.146 95.1829C475.146 92.5073 472.977 90.3384 470.301 90.3384C467.625 90.3384 465.457 92.5073 465.457 95.1829C465.457 97.8584 467.625 100.027 470.301 100.027Z" fill="#EADCD8"/>
<path d="M470.301 134.325C472.977 134.325 475.146 132.156 475.146 129.48C475.146 126.805 472.977 124.636 470.301 124.636C467.625 124.636 465.457 126.805 465.457 129.48C465.457 132.156 467.625 134.325 470.301 134.325Z" fill="#EADCD8"/>
<g opacity="0.79">
<path opacity="0.79" d="M495.927 66.2817H398.652V389.184H495.927V66.2817Z" fill="#EADCD8"/>
</g>
<path d="M219.641 186.463V130.559L122.366 130.559L122.366 186.463L219.641 186.463Z" fill="#EADCD8"/>
<path d="M211.671 181.255H130.306C128.792 181.255 127.553 180.016 127.553 178.502V138.508C127.553 136.994 128.792 135.755 130.306 135.755H211.671C213.185 135.755 214.424 136.994 214.424 138.508V178.475C214.424 180.016 213.185 181.255 211.671 181.255Z" fill="#BCA7A6"/>
<path d="M193.147 161.988H171.815V161.437C171.815 158.409 174.265 155.959 177.293 155.959H187.67C190.697 155.959 193.147 158.409 193.147 161.437V161.988Z" fill="#A38D8D"/>
<path d="M170.163 161.988H148.831V161.437C148.831 158.409 151.281 155.959 154.309 155.959H164.686C167.714 155.959 170.163 158.409 170.163 161.437V161.988Z" fill="#A38D8D"/>
<path d="M193.835 173.19H190.807V181.228H193.835V173.19Z" fill="#EADCD8"/>
<path d="M151.198 173.19H148.17V181.228H151.198V173.19Z" fill="#EADCD8"/>
<path d="M155.685 173.19H152.657V181.228H155.685V173.19Z" fill="#A38D8D"/>
<path d="M189.321 173.19H186.293V181.228H189.321V173.19Z" fill="#A38D8D"/>
<path d="M194.441 177.897H147.537C145.858 177.897 144.482 176.521 144.482 174.842V168.483H197.524V174.842C197.524 176.548 196.147 177.897 194.441 177.897Z" fill="#FFF8F5"/>
<path d="M196.395 171.374H145.583C144.234 171.374 143.105 170.273 143.105 168.897V165.456C143.105 163.529 144.674 161.933 146.629 161.933H195.376C197.303 161.933 198.9 163.502 198.9 165.456V168.897C198.872 170.273 197.771 171.374 196.395 171.374Z" fill="#EADCD8"/>
<path d="M219.628 135.775V79.8711L122.353 79.8711L122.353 135.775L219.628 135.775Z" fill="#EADCD8"/>
<path d="M211.671 130.553H130.306C128.792 130.553 127.553 129.315 127.553 127.801V87.8336C127.553 86.3197 128.792 85.0811 130.306 85.0811H211.671C213.185 85.0811 214.424 86.3197 214.424 87.8336V127.801C214.424 129.315 213.185 130.553 211.671 130.553Z" fill="#BCA7A6"/>
<path d="M148.005 113.075H145.693V103.716C145.693 101.074 147.84 98.9541 150.455 98.9541C153.097 98.9541 155.217 101.101 155.217 103.716V106.579H152.905V103.716C152.905 102.367 151.804 101.266 150.455 101.266C149.106 101.266 148.005 102.367 148.005 103.716V113.075Z" fill="#F3EEED"/>
<path d="M148.445 130.554H145.693L148.198 123.672H150.95L148.445 130.554Z" fill="#789E00"/>
<path d="M193.532 130.554H196.312L193.807 123.672H191.027L193.532 130.554Z" fill="#789E00"/>
<path d="M199.891 111.616L199.505 113.267L199.01 115.469L198.101 119.488C197.11 123.81 193.284 126.865 188.853 126.865H153.125C148.693 126.865 144.867 123.782 143.876 119.488L142.968 115.469L142.472 113.267L142.087 111.616C141.867 110.707 142.582 109.827 143.518 109.827H198.459C199.395 109.827 200.083 110.707 199.891 111.616Z" fill="#00CC00"/>
<path d="M188.853 126.865H153.125C148.693 126.865 144.867 123.81 143.876 119.488L142.087 111.616C141.867 110.707 142.582 109.827 143.518 109.827H198.459C199.395 109.827 200.083 110.707 199.891 111.616L198.101 119.488C197.138 123.81 193.284 126.865 188.853 126.865Z" fill="#96D300"/>
<path d="M199.505 113.268L199.01 115.442H142.968L142.472 113.268H199.505Z" fill="#789E00"/>
<path d="M199.725 113.157H142.252C141.344 113.157 140.601 112.414 140.601 111.506C140.601 110.597 141.344 109.854 142.252 109.854H199.725C200.634 109.854 201.377 110.597 201.377 111.506C201.377 112.414 200.634 113.157 199.725 113.157Z" fill="#96D300"/>
<path d="M219.64 338.512V282.608H122.364L122.364 338.512H219.64Z" fill="#EADCD8"/>
<path d="M211.699 333.307H130.334C128.82 333.307 127.581 332.068 127.581 330.554V290.587C127.581 289.073 128.82 287.834 130.334 287.834H211.699C213.213 287.834 214.452 289.073 214.452 290.587V330.554C214.452 332.068 213.213 333.307 211.699 333.307Z" fill="#BCA7A6"/>
<path d="M189.817 329.728H187.422V333.306H189.817V329.728Z" fill="#A38D8D"/>
<path d="M197.303 329.728H194.909V333.306H197.303V329.728Z" fill="#A38D8D"/>
<path d="M147.427 329.728H145.033V333.306H147.427V329.728Z" fill="#A38D8D"/>
<path d="M154.887 329.728H152.492V333.306H154.887V329.728Z" fill="#A38D8D"/>
<path d="M197.606 322.434H155.382V313.928C155.382 312.084 156.869 310.57 158.74 310.57H194.276C196.12 310.57 197.634 312.057 197.634 313.928V322.434H197.606Z" fill="#A38D8D"/>
<path d="M158.08 330.113H144.399C143.794 330.113 143.298 329.618 143.298 329.012V314.727H154.721C156.566 314.727 158.08 316.213 158.08 318.085V330.113Z" fill="#DDCDCA"/>
<path d="M146.216 330.113H143.766C141.922 330.113 140.408 328.627 140.408 326.755V317.149C140.408 315.8 141.509 314.727 142.83 314.727H143.766C145.115 314.727 146.189 315.828 146.189 317.149V330.113H146.216Z" fill="#F3EEED"/>
<path d="M192.927 322.434H146.216V330.141H192.927V322.434Z" fill="#F3EEED"/>
<path d="M197.606 330.113H185.219L186.816 314.727H197.606C199.808 314.727 201.597 316.516 201.597 318.718V326.095C201.597 328.324 199.808 330.113 197.606 330.113Z" fill="#DDCDCA"/>
<path d="M186.376 330.113H183.926V317.176C183.926 315.827 185.027 314.754 186.348 314.754H187.284C188.633 314.754 189.706 315.855 189.706 317.176V326.783C189.734 328.627 188.22 330.113 186.376 330.113Z" fill="#F3EEED"/>
<path d="M219.647 287.873V231.969L122.372 231.969L122.372 287.873H219.647Z" fill="#EADCD8"/>
<path d="M211.699 282.66H130.333C128.819 282.66 127.581 281.421 127.581 279.907V239.94C127.581 238.426 128.819 237.188 130.333 237.188H211.699C213.212 237.188 214.451 238.426 214.451 239.94V279.907C214.451 281.421 213.212 282.66 211.699 282.66Z" fill="#BCA7A6"/>
<path d="M180.402 256.455C180.402 262.318 176.191 263.226 171.016 263.226C165.814 263.226 161.63 262.318 161.63 256.455H180.402Z" fill="#A38D8D"/>
<path d="M156.84 282.659H154.831L158.162 263.832H160.144L156.84 282.659Z" fill="#F3EEED"/>
<path d="M160.556 282.659H158.574L161.877 263.832H163.887L160.556 282.659Z" fill="#A38D8D"/>
<path d="M185.192 282.659H187.174L183.843 263.832H181.861L185.192 282.659Z" fill="#F3EEED"/>
<path d="M181.448 282.659H183.458L180.127 263.832H178.118L181.448 282.659Z" fill="#A38D8D"/>
<path d="M189.128 265.373H152.877C151.17 265.373 149.794 263.997 149.794 262.291H192.183C192.183 263.997 190.834 265.373 189.128 265.373Z" fill="#F3EEED"/>
<path d="M152.491 282.66H150.647L147.867 272.255H149.711L152.491 282.66Z" fill="#F2F2F2"/>
<path d="M137.82 282.66H139.665L142.445 272.255H140.628L137.82 282.66Z" fill="#F2F2F2"/>
<path d="M140.82 282.66H142.637L145.445 272.255H143.6L140.82 282.66Z" fill="#A38D8D"/>
<path d="M140.82 271.264H138.976L136.499 261.988C136.361 261.437 136.774 260.859 137.352 260.859C137.765 260.859 138.095 261.135 138.205 261.52L140.82 271.264Z" fill="#F2F2F2"/>
<path d="M149.986 273.246H140.958C139.857 273.246 138.976 272.365 138.976 271.264H149.986C150.537 271.264 150.977 271.705 150.977 272.255C150.977 272.806 150.537 273.246 149.986 273.246Z" fill="#F2F2F2"/>
<path d="M189.513 282.66H191.357L194.137 272.255H192.32L189.513 282.66Z" fill="#F2F2F2"/>
<path d="M204.184 282.66H202.34L199.56 272.255H201.404L204.184 282.66Z" fill="#F2F2F2"/>
<path d="M201.211 282.66H199.366L196.586 272.255H198.403L201.211 282.66Z" fill="#A38D8D"/>
<path d="M201.211 271.264H203.055L205.532 261.988C205.67 261.437 205.257 260.859 204.679 260.859C204.266 260.859 203.936 261.135 203.826 261.52L201.211 271.264Z" fill="#F2F2F2"/>
<path d="M192.017 273.246H201.046C202.147 273.246 203.027 272.365 203.027 271.264H192.017C191.467 271.264 191.026 271.705 191.026 272.255C191.054 272.806 191.494 273.246 192.017 273.246Z" fill="#F2F2F2"/>
<path d="M219.626 237.151V181.247L122.351 181.247L122.351 237.151L219.626 237.151Z" fill="#EADCD8"/>
<path d="M211.671 231.93H130.305C128.791 231.93 127.553 230.691 127.553 229.178V189.211C127.553 187.697 128.791 186.458 130.305 186.458H211.671C213.185 186.458 214.423 187.697 214.423 189.211V229.178C214.423 230.691 213.185 231.93 211.671 231.93Z" fill="#BCA7A6"/>
<path d="M175.502 220.259H166.501V224.003H175.502V220.259Z" fill="#A38D8D"/>
<path d="M187.614 221.58H154.391C153.84 221.58 153.372 221.112 153.372 220.562V203.248C153.372 202.698 153.84 202.23 154.391 202.23H187.614C188.164 202.23 188.632 202.698 188.632 203.248V220.562C188.605 221.112 188.164 221.58 187.614 221.58Z" fill="#F3EEED"/>
<path d="M186.375 204.074H155.574V219.736H186.375V204.074Z" fill="#96D300"/>
<path d="M193.752 224.002H148.225C146.27 224.002 144.674 225.599 144.674 227.553V231.93H197.275V227.553C197.303 225.599 195.706 224.002 193.752 224.002Z" fill="#DDCDCA"/>
<path d="M146.903 231.93V227.553C146.903 226.81 147.509 226.205 148.252 226.205H193.779C194.522 226.205 195.128 226.81 195.128 227.553V231.93H146.903Z" fill="#BCA7A6"/>
<path d="M219.652 389.2V333.295H122.377L122.377 389.2H219.652Z" fill="#EADCD8"/>
<path d="M211.699 383.981H130.333C128.819 383.981 127.581 382.742 127.581 381.228V341.261C127.581 339.747 128.819 338.509 130.333 338.509H211.699C213.212 338.509 214.451 339.747 214.451 341.261V381.228C214.451 382.77 213.212 383.981 211.699 383.981Z" fill="#A38D8D"/>
<path d="M172.42 383.981H138.343V349.409C138.343 347.895 139.582 346.656 141.096 346.656H169.64C171.154 346.656 172.392 347.895 172.392 349.409V383.981H172.42Z" fill="#937F7F"/>
<g opacity="0.1">
<path opacity="0.1" d="M263.144 314.864C270.608 314.864 276.659 308.813 276.659 301.349C276.659 293.885 270.608 287.834 263.144 287.834C255.68 287.834 249.629 293.885 249.629 301.349C249.629 308.813 255.68 314.864 263.144 314.864Z" fill="white"/>
</g>
<path d="M564.411 366.695H450.042C448.143 366.695 446.602 365.154 446.602 363.254V75.6953H447.978V363.282C447.978 364.41 448.914 365.346 450.042 365.346H564.411V366.695Z" fill="#96D300"/>
<path d="M552.685 383.981H576.137V352.162C576.137 349.877 574.293 348.033 572.008 348.033H556.814C554.529 348.033 552.685 349.877 552.685 352.162V383.981Z" fill="#96D300"/>
<path d="M559.952 369.448H564.411L566.008 360.447L559.952 369.448Z" fill="white"/>
<path d="M568.898 369.447H564.411L562.842 378.448L568.898 369.447Z" fill="white"/>
<path d="M568.155 370.521H559.209L559.952 369.448L560.695 368.375H569.614L568.898 369.448L568.155 370.521Z" fill="white"/>
<path d="M557.089 355.795H556.236C555.768 355.795 555.41 355.437 555.41 354.969V352.602C555.41 352.134 555.768 351.776 556.236 351.776H557.089C557.557 351.776 557.915 352.134 557.915 352.602V354.969C557.915 355.409 557.557 355.795 557.089 355.795Z" fill="white"/>
<path d="M560.97 355.795H560.117C559.649 355.795 559.291 355.437 559.291 354.969V352.602C559.291 352.134 559.649 351.776 560.117 351.776H560.97C561.438 351.776 561.796 352.134 561.796 352.602V354.969C561.796 355.409 561.438 355.795 560.97 355.795Z" fill="white"/>
<path d="M564.851 355.795H563.998C563.53 355.795 563.172 355.437 563.172 354.969V352.602C563.172 352.134 563.53 351.776 563.998 351.776H564.851C565.319 351.776 565.677 352.134 565.677 352.602V354.969C565.677 355.409 565.292 355.795 564.851 355.795Z" fill="white"/>
<path d="M568.705 355.795H567.852C567.384 355.795 567.026 355.437 567.026 354.969V352.602C567.026 352.134 567.384 351.776 567.852 351.776H568.705C569.173 351.776 569.531 352.134 569.531 352.602V354.969C569.531 355.409 569.173 355.795 568.705 355.795Z" fill="white"/>
<path d="M572.586 355.795H571.733C571.265 355.795 570.907 355.437 570.907 354.969V352.602C570.907 352.134 571.265 351.776 571.733 351.776H572.586C573.054 351.776 573.412 352.134 573.412 352.602V354.969C573.412 355.409 573.027 355.795 572.586 355.795Z" fill="white"/>
<path d="M536.61 76.3831H265.896C263.997 76.3831 262.456 74.8417 262.456 72.9424V51.6377H263.832V72.9424C263.832 74.071 264.768 75.0069 265.896 75.0069H536.61C537.738 75.0069 538.674 74.071 538.674 72.9424V51.913H540.05V72.9424C540.05 74.8142 538.509 76.3831 536.61 76.3831Z" fill="#96D300"/>
<path d="M263.144 59.2076C266.945 59.2076 270.025 56.1267 270.025 52.3262C270.025 48.5257 266.945 45.4448 263.144 45.4448C259.344 45.4448 256.263 48.5257 256.263 52.3262C256.263 56.1267 259.344 59.2076 263.144 59.2076Z" fill="white"/>
<path d="M263.144 60.5837C258.602 60.5837 254.886 56.8677 254.886 52.326C254.886 47.7843 258.602 44.0684 263.144 44.0684C267.686 44.0684 271.402 47.7843 271.402 52.326C271.402 56.8677 267.713 60.5837 263.144 60.5837ZM263.144 46.8209C260.116 46.8209 257.639 49.2982 257.639 52.326C257.639 55.3538 260.116 57.8311 263.144 57.8311C266.172 57.8311 268.649 55.3538 268.649 52.326C268.649 49.2982 266.172 46.8209 263.144 46.8209Z" fill="#96D300"/>
<path d="M355.877 51.6377H354.501V76.3831H355.877V51.6377Z" fill="#96D300"/>
<path d="M355.189 59.2076C358.99 59.2076 362.071 56.1267 362.071 52.3262C362.071 48.5257 358.99 45.4448 355.189 45.4448C351.389 45.4448 348.308 48.5257 348.308 52.3262C348.308 56.1267 351.389 59.2076 355.189 59.2076Z" fill="white"/>
<path d="M355.189 60.5837C350.648 60.5837 346.932 56.8677 346.932 52.326C346.932 47.7843 350.648 44.0684 355.189 44.0684C359.731 44.0684 363.447 47.7843 363.447 52.326C363.447 56.8677 359.759 60.5837 355.189 60.5837ZM355.189 46.8209C352.161 46.8209 349.684 49.2982 349.684 52.326C349.684 55.3538 352.161 57.8311 355.189 57.8311C358.217 57.8311 360.694 55.3538 360.694 52.326C360.694 49.2982 358.245 46.8209 355.189 46.8209Z" fill="#96D300"/>
<path d="M539.363 59.2076C543.163 59.2076 546.244 56.1267 546.244 52.3262C546.244 48.5257 543.163 45.4448 539.363 45.4448C535.562 45.4448 532.481 48.5257 532.481 52.3262C532.481 56.1267 535.562 59.2076 539.363 59.2076Z" fill="white"/>
<path d="M539.363 60.5837C534.821 60.5837 531.105 56.8677 531.105 52.326C531.105 47.7843 534.821 44.0684 539.363 44.0684C543.904 44.0684 547.62 47.7843 547.62 52.326C547.62 56.8677 543.932 60.5837 539.363 60.5837ZM539.363 46.8209C536.335 46.8209 533.858 49.2982 533.858 52.326C533.858 55.3538 536.335 57.8311 539.363 57.8311C542.39 57.8311 544.868 55.3538 544.868 52.326C544.868 49.2982 542.418 46.8209 539.363 46.8209Z" fill="#96D300"/>
<path d="M447.978 107.129H403.167V108.506H447.978V107.129Z" fill="#96D300"/>
<path d="M394.826 117.204C393.312 117.204 392.074 115.965 392.074 114.451V101.184C392.074 99.6703 393.312 98.4316 394.826 98.4316H402.478C403.992 98.4316 405.231 99.6703 405.231 101.184V114.451C405.231 115.965 403.992 117.204 402.478 117.204H394.826Z" fill="white"/>
<path d="M402.478 99.8077C403.249 99.8077 403.854 100.413 403.854 101.184V114.451C403.854 115.222 403.249 115.828 402.478 115.828H394.826C394.055 115.828 393.45 115.222 393.45 114.451V101.184C393.45 100.413 394.055 99.8077 394.826 99.8077H402.478ZM402.478 97.0552H394.826C392.541 97.0552 390.697 98.8994 390.697 101.184V114.451C390.697 116.736 392.541 118.58 394.826 118.58H402.478C404.763 118.58 406.607 116.736 406.607 114.451V101.184C406.607 98.8994 404.763 97.0552 402.478 97.0552Z" fill="#96D300"/>
<path d="M386.954 98.2111C388.003 98.2111 388.853 97.3608 388.853 96.3119C388.853 95.2629 388.003 94.4126 386.954 94.4126C385.905 94.4126 385.055 95.2629 385.055 96.3119C385.055 97.3608 385.905 98.2111 386.954 98.2111Z" fill="white"/>
<path d="M383.871 99.9454C383.733 99.9454 383.596 99.8904 383.486 99.7803C381.559 97.8535 381.559 94.7431 383.486 92.8439C383.706 92.6237 384.036 92.6237 384.256 92.8439C384.476 93.0641 384.476 93.3944 384.256 93.6146C382.77 95.101 382.77 97.5232 384.256 99.0096C384.476 99.2298 384.476 99.5601 384.256 99.7803C384.146 99.8904 384.009 99.9454 383.871 99.9454Z" fill="white"/>
<path d="M382.137 101.679C382 101.679 381.862 101.624 381.752 101.514C380.348 100.11 379.605 98.2661 379.605 96.3118C379.605 94.3575 380.376 92.4858 381.752 91.1095C381.972 90.8893 382.302 90.8893 382.523 91.1095C382.743 91.3297 382.743 91.66 382.523 91.8802C381.339 93.0638 380.678 94.6327 380.678 96.3118C380.678 97.9909 381.339 99.5598 382.523 100.743C382.743 100.964 382.743 101.294 382.523 101.514C382.412 101.652 382.275 101.679 382.137 101.679Z" fill="white"/>
<path d="M380.403 103.441C380.265 103.441 380.128 103.386 380.017 103.276C376.191 99.4498 376.191 93.229 380.017 89.4029C380.238 89.1827 380.568 89.1827 380.788 89.4029C381.008 89.6231 381.008 89.9535 380.788 90.1737C377.403 93.5593 377.403 99.0919 380.788 102.505C381.008 102.725 381.008 103.056 380.788 103.276C380.678 103.386 380.54 103.441 380.403 103.441Z" fill="white"/>
<path d="M396.065 107.818H398.652L399.561 102.588L396.065 107.818Z" fill="#789E00"/>
<path d="M401.239 107.818H398.652L397.744 113.02L401.239 107.818Z" fill="#789E00"/>
<path d="M400.827 108.451H395.625L396.065 107.818L396.478 107.185H401.68L401.24 107.818L400.827 108.451Z" fill="#789E00"/>
<path d="M491.413 107.129H446.602V108.506H491.413V107.129Z" fill="#96D300"/>
<path d="M492.101 117.204C490.587 117.204 489.349 115.965 489.349 114.451V101.184C489.349 99.6698 490.587 98.4312 492.101 98.4312H499.753C501.267 98.4312 502.506 99.6698 502.506 101.184V114.451C502.506 115.965 501.267 117.204 499.753 117.204H492.101Z" fill="white"/>
<path d="M499.781 99.8072C500.552 99.8072 501.157 100.413 501.157 101.184V114.451C501.157 115.222 500.552 115.827 499.781 115.827H492.129C491.358 115.827 490.753 115.222 490.753 114.451V101.184C490.753 100.413 491.358 99.8072 492.129 99.8072H499.781ZM499.781 97.0547H492.129C489.844 97.0547 488 98.8989 488 101.184V114.451C488 116.735 489.844 118.58 492.129 118.58H499.781C502.066 118.58 503.91 116.735 503.91 114.451V101.184C503.91 98.8989 502.038 97.0547 499.781 97.0547Z" fill="#96D300"/>
<path d="M507.626 98.2111C508.675 98.2111 509.525 97.3608 509.525 96.3119C509.525 95.2629 508.675 94.4126 507.626 94.4126C506.577 94.4126 505.727 95.2629 505.727 96.3119C505.727 97.3608 506.577 98.2111 507.626 98.2111Z" fill="white"/>
<path d="M510.709 99.9454C510.571 99.9454 510.433 99.8904 510.323 99.7803C510.103 99.5601 510.103 99.2298 510.323 99.0096C511.039 98.2939 511.452 97.3305 511.452 96.3121C511.452 95.2936 511.067 94.3302 510.323 93.6146C510.103 93.3944 510.103 93.0641 510.323 92.8439C510.544 92.6237 510.874 92.6237 511.094 92.8439C513.021 94.7706 513.021 97.881 511.094 99.7803C511.012 99.8904 510.846 99.9454 510.709 99.9454Z" fill="white"/>
<path d="M512.443 101.679C512.305 101.679 512.168 101.624 512.058 101.514C511.838 101.294 511.838 100.964 512.058 100.743C513.241 99.5598 513.902 97.9909 513.902 96.3118C513.902 94.6327 513.241 93.0638 512.058 91.8802C511.838 91.66 511.838 91.3297 512.058 91.1095C512.278 90.8893 512.608 90.8893 512.828 91.1095C514.232 92.5133 514.975 94.3575 514.975 96.3118C514.975 98.2661 514.205 100.138 512.828 101.514C512.746 101.652 512.608 101.679 512.443 101.679Z" fill="white"/>
<path d="M514.177 103.441C514.039 103.441 513.901 103.386 513.791 103.276C513.571 103.056 513.571 102.725 513.791 102.505C517.177 99.1194 517.177 93.5868 513.791 90.1737C513.571 89.9535 513.571 89.6231 513.791 89.4029C514.011 89.1827 514.342 89.1827 514.562 89.4029C518.388 93.229 518.388 99.4498 514.562 103.276C514.479 103.386 514.342 103.441 514.177 103.441Z" fill="white"/>
<path d="M493.34 107.817H495.928L496.863 102.587L493.34 107.817Z" fill="#789E00"/>
<path d="M498.515 107.817H495.927L495.019 113.02L498.515 107.817Z" fill="#789E00"/>
<path d="M498.102 108.45H492.927L493.34 107.817L493.781 107.184H498.955L498.515 107.817L498.102 108.45Z" fill="#789E00"/>
<path d="M447.29 111.01C449.053 111.01 450.483 109.581 450.483 107.817C450.483 106.054 449.053 104.625 447.29 104.625C445.526 104.625 444.097 106.054 444.097 107.817C444.097 109.581 445.526 111.01 447.29 111.01Z" fill="#96D300"/>
<path d="M447.978 157.804H403.167V159.18H447.978V157.804Z" fill="#96D300"/>
<path d="M394.826 167.878C393.312 167.878 392.074 166.639 392.074 165.125V151.858C392.074 150.344 393.312 149.105 394.826 149.105H402.478C403.992 149.105 405.231 150.344 405.231 151.858V165.125C405.231 166.639 403.992 167.878 402.478 167.878H394.826Z" fill="white"/>
<path d="M402.478 150.509C403.249 150.509 403.854 151.115 403.854 151.886V165.153C403.854 165.924 403.249 166.529 402.478 166.529H394.826C394.055 166.529 393.45 165.924 393.45 165.153V151.886C393.45 151.115 394.055 150.509 394.826 150.509H402.478ZM402.478 147.757H394.826C392.541 147.757 390.697 149.601 390.697 151.886V165.153C390.697 167.438 392.541 169.282 394.826 169.282H402.478C404.763 169.282 406.607 167.438 406.607 165.153V151.886C406.607 149.601 404.763 147.757 402.478 147.757Z" fill="#96D300"/>
<path d="M386.954 148.913C388.003 148.913 388.853 148.063 388.853 147.014C388.853 145.965 388.003 145.115 386.954 145.115C385.905 145.115 385.055 145.965 385.055 147.014C385.055 148.063 385.905 148.913 386.954 148.913Z" fill="white"/>
<path d="M383.871 150.647C383.733 150.647 383.596 150.592 383.486 150.482C381.559 148.555 381.559 145.445 383.486 143.546C383.706 143.325 384.036 143.325 384.256 143.546C384.476 143.766 384.476 144.096 384.256 144.316C382.77 145.803 382.77 148.225 384.256 149.711C384.476 149.931 384.476 150.262 384.256 150.482C384.146 150.592 384.009 150.647 383.871 150.647Z" fill="white"/>
<path d="M382.137 152.381C382 152.381 381.862 152.326 381.752 152.216C380.348 150.812 379.605 148.968 379.605 147.014C379.605 145.06 380.376 143.188 381.752 141.812C381.972 141.591 382.302 141.591 382.523 141.812C382.743 142.032 382.743 142.362 382.523 142.582C381.339 143.766 380.678 145.335 380.678 147.014C380.678 148.693 381.339 150.262 382.523 151.446C382.743 151.666 382.743 151.996 382.523 152.216C382.412 152.326 382.275 152.381 382.137 152.381Z" fill="white"/>
<path d="M380.403 154.115C380.265 154.115 380.128 154.06 380.017 153.95C376.191 150.124 376.191 143.903 380.017 140.077C380.238 139.857 380.568 139.857 380.788 140.077C381.008 140.297 381.008 140.628 380.788 140.848C377.403 144.234 377.403 149.766 380.788 153.179C381.008 153.4 381.008 153.73 380.788 153.95C380.678 154.06 380.54 154.115 380.403 154.115Z" fill="white"/>
<path d="M396.065 158.492H398.652L399.561 153.29L396.065 158.492Z" fill="#789E00"/>
<path d="M401.239 158.492H398.652L397.744 163.722L401.239 158.492Z" fill="#789E00"/>
<path d="M400.827 159.125H395.625L396.065 158.492L396.478 157.859H401.68L401.24 158.492L400.827 159.125Z" fill="#789E00"/>
<path d="M491.413 157.804H446.602V159.18H491.413V157.804Z" fill="#96D300"/>
<path d="M492.101 167.878C490.587 167.878 489.349 166.639 489.349 165.125V151.858C489.349 150.344 490.587 149.105 492.101 149.105H499.753C501.267 149.105 502.506 150.344 502.506 151.858V165.125C502.506 166.639 501.267 167.878 499.753 167.878H492.101Z" fill="white"/>
<path d="M499.781 150.509C500.552 150.509 501.157 151.115 501.157 151.886V165.153C501.157 165.924 500.552 166.529 499.781 166.529H492.129C491.358 166.529 490.753 165.924 490.753 165.153V151.886C490.753 151.115 491.358 150.509 492.129 150.509H499.781ZM499.781 147.757H492.129C489.844 147.757 488 149.601 488 151.886V165.153C488 167.438 489.844 169.282 492.129 169.282H499.781C502.066 169.282 503.91 167.438 503.91 165.153V151.886C503.91 149.601 502.038 147.757 499.781 147.757Z" fill="#96D300"/>
<path d="M507.626 148.913C508.675 148.913 509.525 148.063 509.525 147.014C509.525 145.965 508.675 145.115 507.626 145.115C506.577 145.115 505.727 145.965 505.727 147.014C505.727 148.063 506.577 148.913 507.626 148.913Z" fill="white"/>
<path d="M510.709 150.647C510.571 150.647 510.433 150.592 510.323 150.482C510.103 150.262 510.103 149.931 510.323 149.711C511.039 148.996 511.452 148.032 511.452 147.014C511.452 145.995 511.067 145.032 510.323 144.316C510.103 144.096 510.103 143.766 510.323 143.546C510.544 143.325 510.874 143.325 511.094 143.546C513.021 145.472 513.021 148.583 511.094 150.482C511.012 150.592 510.846 150.647 510.709 150.647Z" fill="white"/>
<path d="M512.443 152.381C512.305 152.381 512.168 152.326 512.058 152.216C511.838 151.996 511.838 151.666 512.058 151.446C513.241 150.262 513.902 148.693 513.902 147.014C513.902 145.335 513.241 143.766 512.058 142.582C511.838 142.362 511.838 142.032 512.058 141.812C512.278 141.591 512.608 141.591 512.828 141.812C514.232 143.215 514.975 145.06 514.975 147.014C514.975 148.968 514.205 150.84 512.828 152.216C512.746 152.326 512.608 152.381 512.443 152.381Z" fill="white"/>
<path d="M514.177 154.115C514.039 154.115 513.901 154.06 513.791 153.95C513.571 153.73 513.571 153.4 513.791 153.179C517.177 149.794 517.177 144.261 513.791 140.848C513.571 140.628 513.571 140.297 513.791 140.077C514.011 139.857 514.342 139.857 514.562 140.077C518.388 143.903 518.388 150.124 514.562 153.95C514.479 154.06 514.342 154.115 514.177 154.115Z" fill="white"/>
<path d="M493.34 158.492H495.928L496.863 153.29L493.34 158.492Z" fill="#789E00"/>
<path d="M498.515 158.492H495.927L495.019 163.722L498.515 158.492Z" fill="#789E00"/>
<path d="M498.102 159.125H492.927L493.34 158.492L493.781 157.859H498.955L498.515 158.492L498.102 159.125Z" fill="#789E00"/>
<path d="M447.29 161.685C449.053 161.685 450.483 160.255 450.483 158.492C450.483 156.728 449.053 155.299 447.29 155.299C445.526 155.299 444.097 156.728 444.097 158.492C444.097 160.255 445.526 161.685 447.29 161.685Z" fill="#96D300"/>
<path d="M447.978 208.506H403.166V209.882H447.978V208.506Z" fill="#96D300"/>
<path d="M394.825 218.58C393.311 218.58 392.073 217.342 392.073 215.828V202.561C392.073 201.047 393.311 199.808 394.825 199.808H402.477C403.991 199.808 405.23 201.047 405.23 202.561V215.828C405.23 217.342 403.991 218.58 402.477 218.58H394.825Z" fill="white"/>
<path d="M402.478 201.184C403.248 201.184 403.854 201.79 403.854 202.56V215.828C403.854 216.598 403.248 217.204 402.478 217.204H394.826C394.055 217.204 393.449 216.598 393.449 215.828V202.56C393.449 201.79 394.055 201.184 394.826 201.184H402.478ZM402.478 198.432H394.826C392.541 198.432 390.697 200.276 390.697 202.56V215.828C390.697 218.112 392.541 219.957 394.826 219.957H402.478C404.762 219.957 406.606 218.112 406.606 215.828V202.56C406.606 200.276 404.762 198.432 402.478 198.432Z" fill="#96D300"/>
<path d="M386.953 199.588C388.002 199.588 388.853 198.737 388.853 197.688C388.853 196.639 388.002 195.789 386.953 195.789C385.905 195.789 385.054 196.639 385.054 197.688C385.054 198.737 385.905 199.588 386.953 199.588Z" fill="white"/>
<path d="M383.871 201.322C383.733 201.322 383.595 201.267 383.485 201.157C381.558 199.23 381.558 196.12 383.485 194.22C383.705 194 384.036 194 384.256 194.22C384.476 194.441 384.476 194.771 384.256 194.991C382.769 196.477 382.769 198.9 384.256 200.386C384.476 200.606 384.476 200.937 384.256 201.157C384.146 201.267 384.008 201.322 383.871 201.322Z" fill="white"/>
<path d="M382.136 203.056C381.999 203.056 381.861 203.001 381.751 202.891C380.347 201.487 379.604 199.643 379.604 197.688C379.604 195.734 380.375 193.862 381.751 192.486C381.971 192.266 382.302 192.266 382.522 192.486C382.742 192.706 382.742 193.036 382.522 193.257C381.338 194.44 380.678 196.009 380.678 197.688C380.678 199.367 381.338 200.936 382.522 202.12C382.742 202.34 382.742 202.67 382.522 202.891C382.412 203.001 382.274 203.056 382.136 203.056Z" fill="white"/>
<path d="M380.402 204.817C380.265 204.817 380.127 204.762 380.017 204.652C378.173 202.808 377.154 200.331 377.154 197.716C377.154 195.101 378.173 192.624 380.017 190.779C380.237 190.559 380.567 190.559 380.788 190.779C381.008 191 381.008 191.33 380.788 191.55C379.136 193.202 378.228 195.376 378.228 197.716C378.228 200.056 379.136 202.23 380.788 203.882C381.008 204.102 381.008 204.432 380.788 204.652C380.678 204.762 380.54 204.817 380.402 204.817Z" fill="white"/>
<path d="M396.064 209.194H398.652L399.56 203.964L396.064 209.194Z" fill="#789E00"/>
<path d="M401.239 209.194H398.652L397.744 214.397L401.239 209.194Z" fill="#789E00"/>
<path d="M400.826 209.827H395.624L396.064 209.194L396.477 208.561H401.68L401.239 209.194L400.826 209.827Z" fill="#789E00"/>
<path d="M491.413 208.506H446.602V209.882H491.413V208.506Z" fill="#96D300"/>
<path d="M492.101 218.58C490.587 218.58 489.349 217.342 489.349 215.828V202.561C489.349 201.047 490.587 199.808 492.101 199.808H499.753C501.267 199.808 502.506 201.047 502.506 202.561V215.828C502.506 217.342 501.267 218.58 499.753 218.58H492.101Z" fill="white"/>
<path d="M499.781 201.184C500.552 201.184 501.157 201.79 501.157 202.56V215.828C501.157 216.598 500.552 217.204 499.781 217.204H492.129C491.358 217.204 490.753 216.598 490.753 215.828V202.56C490.753 201.79 491.358 201.184 492.129 201.184H499.781ZM499.781 198.432H492.129C489.844 198.432 488 200.276 488 202.56V215.828C488 218.112 489.844 219.957 492.129 219.957H499.781C502.066 219.957 503.91 218.112 503.91 215.828V202.56C503.91 200.276 502.038 198.432 499.781 198.432Z" fill="#96D300"/>
<path d="M507.626 199.588C508.675 199.588 509.525 198.737 509.525 197.688C509.525 196.639 508.675 195.789 507.626 195.789C506.577 195.789 505.727 196.639 505.727 197.688C505.727 198.737 506.577 199.588 507.626 199.588Z" fill="white"/>
<path d="M510.709 201.322C510.571 201.322 510.433 201.267 510.323 201.157C510.103 200.937 510.103 200.606 510.323 200.386C511.039 199.67 511.452 198.707 511.452 197.689C511.452 196.67 511.067 195.707 510.323 194.991C510.103 194.771 510.103 194.441 510.323 194.22C510.544 194 510.874 194 511.094 194.22C512.03 195.156 512.525 196.367 512.525 197.689C512.525 199.01 512.002 200.221 511.094 201.157C511.012 201.267 510.846 201.322 510.709 201.322Z" fill="white"/>
<path d="M512.443 203.056C512.305 203.056 512.168 203.001 512.058 202.891C511.838 202.67 511.838 202.34 512.058 202.12C513.241 200.936 513.902 199.367 513.902 197.688C513.902 196.009 513.241 194.44 512.058 193.257C511.838 193.036 511.838 192.706 512.058 192.486C512.278 192.266 512.608 192.266 512.828 192.486C514.232 193.89 514.975 195.734 514.975 197.688C514.975 199.643 514.205 201.514 512.828 202.891C512.746 203.001 512.608 203.056 512.443 203.056Z" fill="white"/>
<path d="M514.176 204.817C514.039 204.817 513.901 204.762 513.791 204.652C513.571 204.432 513.571 204.102 513.791 203.882C515.443 202.23 516.351 200.056 516.351 197.716C516.351 195.376 515.443 193.202 513.791 191.55C513.571 191.33 513.571 191 513.791 190.779C514.011 190.559 514.342 190.559 514.562 190.779C516.406 192.624 517.424 195.101 517.424 197.716C517.424 200.331 516.406 202.808 514.562 204.652C514.479 204.762 514.342 204.817 514.176 204.817Z" fill="white"/>
<path d="M493.34 209.194H495.928L496.863 203.964L493.34 209.194Z" fill="#789E00"/>
<path d="M498.515 209.194H495.927L495.019 214.397L498.515 209.194Z" fill="#789E00"/>
<path d="M498.102 209.827H492.927L493.34 209.194L493.781 208.561H498.955L498.515 209.194L498.102 209.827Z" fill="#789E00"/>
<path d="M447.289 212.387C449.053 212.387 450.482 210.957 450.482 209.194C450.482 207.431 449.053 206.001 447.289 206.001C445.526 206.001 444.096 207.431 444.096 209.194C444.096 210.957 445.526 212.387 447.289 212.387Z" fill="#96D300"/>
<path d="M447.978 259.18H403.167V260.556H447.978V259.18Z" fill="#96D300"/>
<path d="M394.826 269.255C393.312 269.255 392.074 268.016 392.074 266.502V253.235C392.074 251.721 393.312 250.482 394.826 250.482H402.478C403.992 250.482 405.231 251.721 405.231 253.235V266.502C405.231 268.016 403.992 269.255 402.478 269.255H394.826Z" fill="white"/>
<path d="M402.478 251.859C403.249 251.859 403.854 252.464 403.854 253.235V266.502C403.854 267.273 403.249 267.878 402.478 267.878H394.826C394.055 267.878 393.45 267.273 393.45 266.502V253.235C393.45 252.464 394.055 251.859 394.826 251.859H402.478ZM402.478 249.106H394.826C392.541 249.106 390.697 250.95 390.697 253.235V266.502C390.697 268.787 392.541 270.631 394.826 270.631H402.478C404.763 270.631 406.607 268.787 406.607 266.502V253.235C406.607 250.978 404.763 249.106 402.478 249.106Z" fill="#96D300"/>
<path d="M386.954 250.289C388.003 250.289 388.853 249.439 388.853 248.39C388.853 247.341 388.003 246.491 386.954 246.491C385.905 246.491 385.055 247.341 385.055 248.39C385.055 249.439 385.905 250.289 386.954 250.289Z" fill="white"/>
<path d="M383.871 252.024C383.733 252.024 383.596 251.969 383.486 251.858C381.559 249.932 381.559 246.821 383.486 244.922C383.706 244.702 384.036 244.702 384.256 244.922C384.476 245.142 384.476 245.472 384.256 245.693C382.77 247.179 382.77 249.601 384.256 251.088C384.476 251.308 384.476 251.638 384.256 251.858C384.146 251.969 384.009 252.024 383.871 252.024Z" fill="white"/>
<path d="M382.137 253.758C382 253.758 381.862 253.703 381.752 253.593C380.348 252.189 379.605 250.345 379.605 248.39C379.605 246.436 380.376 244.564 381.752 243.188C381.972 242.968 382.302 242.968 382.523 243.188C382.743 243.408 382.743 243.739 382.523 243.959C381.339 245.142 380.678 246.711 380.678 248.39C380.678 250.069 381.339 251.638 382.523 252.822C382.743 253.042 382.743 253.373 382.523 253.593C382.412 253.703 382.275 253.758 382.137 253.758Z" fill="white"/>
<path d="M380.403 255.492C380.265 255.492 380.128 255.437 380.017 255.327C376.191 251.501 376.191 245.28 380.017 241.454C380.238 241.234 380.568 241.234 380.788 241.454C381.008 241.674 381.008 242.004 380.788 242.224C377.403 245.61 377.403 251.143 380.788 254.556C381.008 254.776 381.008 255.106 380.788 255.327C380.678 255.437 380.54 255.492 380.403 255.492Z" fill="white"/>
<path d="M396.065 259.868H398.652L399.561 254.666L396.065 259.868Z" fill="#789E00"/>
<path d="M401.239 259.868H398.652L397.744 265.098L401.239 259.868Z" fill="#789E00"/>
<path d="M400.827 260.501H395.625L396.065 259.868L396.478 259.235H401.68L401.24 259.868L400.827 260.501Z" fill="#789E00"/>
<path d="M491.413 259.18H446.602V260.556H491.413V259.18Z" fill="#96D300"/>
<path d="M492.101 269.255C490.587 269.255 489.349 268.016 489.349 266.502V253.235C489.349 251.721 490.587 250.482 492.101 250.482H499.753C501.267 250.482 502.506 251.721 502.506 253.235V266.502C502.506 268.016 501.267 269.255 499.753 269.255H492.101Z" fill="white"/>
<path d="M499.781 251.859C500.552 251.859 501.157 252.464 501.157 253.235V266.502C501.157 267.273 500.552 267.878 499.781 267.878H492.129C491.358 267.878 490.753 267.273 490.753 266.502V253.235C490.753 252.464 491.358 251.859 492.129 251.859H499.781ZM499.781 249.106H492.129C489.844 249.106 488 250.95 488 253.235V266.502C488 268.787 489.844 270.631 492.129 270.631H499.781C502.066 270.631 503.91 268.787 503.91 266.502V253.235C503.91 250.978 502.038 249.106 499.781 249.106Z" fill="#96D300"/>
<path d="M507.626 250.289C508.675 250.289 509.525 249.439 509.525 248.39C509.525 247.341 508.675 246.491 507.626 246.491C506.577 246.491 505.727 247.341 505.727 248.39C505.727 249.439 506.577 250.289 507.626 250.289Z" fill="white"/>
<path d="M510.709 252.024C510.571 252.024 510.433 251.969 510.323 251.858C510.103 251.638 510.103 251.308 510.323 251.088C511.039 250.372 511.452 249.409 511.452 248.39C511.452 247.372 511.067 246.408 510.323 245.693C510.103 245.472 510.103 245.142 510.323 244.922C510.544 244.702 510.874 244.702 511.094 244.922C513.021 246.849 513.021 249.959 511.094 251.858C511.012 251.969 510.846 252.024 510.709 252.024Z" fill="white"/>
<path d="M512.443 253.758C512.305 253.758 512.168 253.703 512.058 253.593C511.838 253.373 511.838 253.042 512.058 252.822C513.241 251.638 513.902 250.069 513.902 248.39C513.902 246.711 513.241 245.142 512.058 243.959C511.838 243.739 511.838 243.408 512.058 243.188C512.278 242.968 512.608 242.968 512.828 243.188C514.232 244.592 514.975 246.436 514.975 248.39C514.975 250.345 514.205 252.216 512.828 253.593C512.746 253.703 512.608 253.758 512.443 253.758Z" fill="white"/>
<path d="M514.177 255.492C514.039 255.492 513.901 255.437 513.791 255.327C513.571 255.106 513.571 254.776 513.791 254.556C517.177 251.17 517.177 245.638 513.791 242.224C513.571 242.004 513.571 241.674 513.791 241.454C514.011 241.234 514.342 241.234 514.562 241.454C518.388 245.28 518.388 251.501 514.562 255.327C514.479 255.437 514.342 255.492 514.177 255.492Z" fill="white"/>
<path d="M493.34 259.868H495.928L496.863 254.666L493.34 259.868Z" fill="#789E00"/>
<path d="M498.515 259.868H495.927L495.019 265.098L498.515 259.868Z" fill="#789E00"/>
<path d="M498.102 260.501H492.927L493.34 259.868L493.781 259.235H498.955L498.515 259.868L498.102 260.501Z" fill="#789E00"/>
<path d="M447.29 263.061C449.053 263.061 450.483 261.632 450.483 259.868C450.483 258.105 449.053 256.675 447.29 256.675C445.526 256.675 444.097 258.105 444.097 259.868C444.097 261.632 445.526 263.061 447.29 263.061Z" fill="#96D300"/>
<path d="M447.978 309.882H403.167V311.258H447.978V309.882Z" fill="#96D300"/>
<path d="M394.826 319.957C393.312 319.957 392.074 318.718 392.074 317.204V303.937C392.074 302.423 393.312 301.184 394.826 301.184H402.478C403.992 301.184 405.231 302.423 405.231 303.937V317.204C405.231 318.718 403.992 319.957 402.478 319.957H394.826Z" fill="white"/>
<path d="M402.478 302.56C403.249 302.56 403.854 303.166 403.854 303.936V317.204C403.854 317.974 403.249 318.58 402.478 318.58H394.826C394.055 318.58 393.45 317.974 393.45 317.204V303.936C393.45 303.166 394.055 302.56 394.826 302.56H402.478ZM402.478 299.808H394.826C392.541 299.808 390.697 301.652 390.697 303.936V317.204C390.697 319.488 392.541 321.333 394.826 321.333H402.478C404.763 321.333 406.607 319.488 406.607 317.204V303.936C406.607 301.652 404.763 299.808 402.478 299.808Z" fill="#96D300"/>
<path d="M386.954 300.964C388.003 300.964 388.853 300.113 388.853 299.064C388.853 298.015 388.003 297.165 386.954 297.165C385.905 297.165 385.055 298.015 385.055 299.064C385.055 300.113 385.905 300.964 386.954 300.964Z" fill="white"/>
<path d="M383.871 302.698C383.733 302.698 383.596 302.643 383.486 302.533C381.559 300.606 381.559 297.496 383.486 295.596C383.706 295.376 384.036 295.376 384.256 295.596C384.476 295.817 384.476 296.147 384.256 296.367C382.77 297.853 382.77 300.276 384.256 301.762C384.476 301.982 384.476 302.313 384.256 302.533C384.146 302.643 384.009 302.698 383.871 302.698Z" fill="white"/>
<path d="M382.137 304.432C382 304.432 381.862 304.377 381.752 304.267C380.348 302.863 379.605 301.019 379.605 299.065C379.605 297.11 380.376 295.239 381.752 293.862C381.972 293.642 382.302 293.642 382.523 293.862C382.743 294.083 382.743 294.413 382.523 294.633C381.339 295.817 380.678 297.386 380.678 299.065C380.678 300.744 381.339 302.313 382.523 303.496C382.743 303.716 382.743 304.047 382.523 304.267C382.412 304.377 382.275 304.432 382.137 304.432Z" fill="white"/>
<path d="M380.403 306.166C380.265 306.166 380.128 306.111 380.017 306.001C376.191 302.175 376.191 295.954 380.017 292.128C380.238 291.908 380.568 291.908 380.788 292.128C381.008 292.348 381.008 292.679 380.788 292.899C377.403 296.284 377.403 301.817 380.788 305.23C381.008 305.45 381.008 305.781 380.788 306.001C380.678 306.139 380.54 306.166 380.403 306.166Z" fill="white"/>
<path d="M396.065 310.57H398.652L399.561 305.34L396.065 310.57Z" fill="#789E00"/>
<path d="M401.239 310.57H398.652L397.744 315.773L401.239 310.57Z" fill="#789E00"/>
<path d="M400.827 311.203H395.625L396.065 310.57L396.478 309.937H401.68L401.24 310.57L400.827 311.203Z" fill="#789E00"/>
<path d="M491.413 309.882H446.602V311.258H491.413V309.882Z" fill="#96D300"/>
<path d="M492.101 319.957C490.587 319.957 489.349 318.718 489.349 317.204V303.937C489.349 302.423 490.587 301.184 492.101 301.184H499.753C501.267 301.184 502.506 302.423 502.506 303.937V317.204C502.506 318.718 501.267 319.957 499.753 319.957H492.101Z" fill="white"/>
<path d="M499.781 302.56C500.552 302.56 501.157 303.166 501.157 303.936V317.204C501.157 317.974 500.552 318.58 499.781 318.58H492.129C491.358 318.58 490.753 317.974 490.753 317.204V303.936C490.753 303.166 491.358 302.56 492.129 302.56H499.781ZM499.781 299.808H492.129C489.844 299.808 488 301.652 488 303.936V317.204C488 319.488 489.844 321.333 492.129 321.333H499.781C502.066 321.333 503.91 319.488 503.91 317.204V303.936C503.91 301.652 502.038 299.808 499.781 299.808Z" fill="#96D300"/>
<path d="M507.626 300.964C508.675 300.964 509.525 300.113 509.525 299.064C509.525 298.015 508.675 297.165 507.626 297.165C506.577 297.165 505.727 298.015 505.727 299.064C505.727 300.113 506.577 300.964 507.626 300.964Z" fill="white"/>
<path d="M510.709 302.698C510.571 302.698 510.433 302.643 510.323 302.533C510.103 302.313 510.103 301.982 510.323 301.762C511.039 301.046 511.452 300.083 511.452 299.065C511.452 298.046 511.067 297.083 510.323 296.367C510.103 296.147 510.103 295.817 510.323 295.596C510.544 295.376 510.874 295.376 511.094 295.596C513.021 297.523 513.021 300.633 511.094 302.533C511.012 302.643 510.846 302.698 510.709 302.698Z" fill="white"/>
<path d="M512.443 304.432C512.305 304.432 512.168 304.377 512.058 304.267C511.838 304.047 511.838 303.716 512.058 303.496C513.241 302.313 513.902 300.744 513.902 299.065C513.902 297.386 513.241 295.817 512.058 294.633C511.838 294.413 511.838 294.083 512.058 293.862C512.278 293.642 512.608 293.642 512.828 293.862C514.232 295.266 514.975 297.11 514.975 299.065C514.975 301.019 514.205 302.891 512.828 304.267C512.746 304.377 512.608 304.432 512.443 304.432Z" fill="white"/>
<path d="M514.177 306.166C514.039 306.166 513.901 306.111 513.791 306.001C513.571 305.781 513.571 305.45 513.791 305.23C517.177 301.845 517.177 296.312 513.791 292.899C513.571 292.679 513.571 292.348 513.791 292.128C514.011 291.908 514.342 291.908 514.562 292.128C518.388 295.954 518.388 302.175 514.562 306.001C514.479 306.139 514.342 306.166 514.177 306.166Z" fill="white"/>
<path d="M493.34 310.57H495.928L496.863 305.34L493.34 310.57Z" fill="#789E00"/>
<path d="M498.515 310.57H495.927L495.019 315.773L498.515 310.57Z" fill="#789E00"/>
<path d="M498.102 311.203H492.927L493.34 310.57L493.781 309.937H498.955L498.515 310.57L498.102 311.203Z" fill="#789E00"/>
<path d="M447.29 313.763C449.053 313.763 450.483 312.333 450.483 310.57C450.483 308.807 449.053 307.377 447.29 307.377C445.526 307.377 444.097 308.807 444.097 310.57C444.097 312.333 445.526 313.763 447.29 313.763Z" fill="#96D300"/>
<path d="M297.083 17.3411C287.917 17.3411 280.43 9.88166 280.43 0.688138C280.43 0.302781 280.732 0 281.118 0C281.503 0 281.806 0.302781 281.806 0.688138C281.806 9.11095 288.66 15.9648 297.083 15.9648C297.468 15.9648 297.771 16.2676 297.771 16.6529C297.771 17.0383 297.468 17.3411 297.083 17.3411Z" fill="#96D300"/>
<path d="M297.082 26.3144C282.962 26.3144 271.456 14.8087 271.456 0.688138C271.456 0.302781 271.759 0 272.144 0C272.53 0 272.832 0.302781 272.832 0.688138C272.832 14.0655 283.705 24.9381 297.082 24.9381C297.468 24.9381 297.77 25.2409 297.77 25.6263C297.77 26.0116 297.468 26.3144 297.082 26.3144Z" fill="#96D300"/>
<path d="M297.083 35.3152C278.007 35.3152 262.456 19.7908 262.456 0.688138C262.456 0.302781 262.758 0 263.144 0C263.529 0 263.832 0.302781 263.832 0.688138C263.832 19.0201 278.751 33.939 297.083 33.939C297.468 33.939 297.771 34.2417 297.771 34.6271C297.771 35.0125 297.468 35.3152 297.083 35.3152Z" fill="#96D300"/>
<path d="M389.156 17.3411C379.99 17.3411 372.503 9.88166 372.503 0.688138C372.503 0.302781 372.806 0 373.191 0C373.576 0 373.879 0.302781 373.879 0.688138C373.879 9.11095 380.733 15.9648 389.156 15.9648C389.541 15.9648 389.844 16.2676 389.844 16.6529C389.844 17.0383 389.541 17.3411 389.156 17.3411Z" fill="#96D300"/>
<path d="M389.156 26.3144C375.035 26.3144 363.529 14.8087 363.529 0.688138C363.529 0.302781 363.832 0 364.217 0C364.603 0 364.906 0.302781 364.906 0.688138C364.906 14.0655 375.778 24.9381 389.156 24.9381C389.541 24.9381 389.844 25.2409 389.844 25.6263C389.844 26.0116 389.541 26.3144 389.156 26.3144Z" fill="#96D300"/>
<path d="M389.156 35.3152C370.081 35.3152 354.529 19.7908 354.529 0.688138C354.529 0.302781 354.832 0 355.217 0C355.602 0 355.905 0.302781 355.905 0.688138C355.905 19.0201 370.824 33.939 389.156 33.939C389.541 33.939 389.844 34.2417 389.844 34.6271C389.844 35.0125 389.541 35.3152 389.156 35.3152Z" fill="#96D300"/>
<path d="M573.301 17.3411C564.135 17.3411 556.648 9.88166 556.648 0.688138C556.648 0.302781 556.951 0 557.337 0C557.722 0 558.025 0.302781 558.025 0.688138C558.025 9.11095 564.879 15.9648 573.301 15.9648C573.687 15.9648 573.99 16.2676 573.99 16.6529C573.99 17.0383 573.687 17.3411 573.301 17.3411Z" fill="#96D300"/>
<path d="M573.301 26.3144C559.181 26.3144 547.675 14.8087 547.675 0.688138C547.675 0.302781 547.978 0 548.363 0C548.748 0 549.051 0.302781 549.051 0.688138C549.051 14.0655 559.924 24.9381 573.301 24.9381C573.686 24.9381 573.989 25.2409 573.989 25.6263C573.989 26.0116 573.686 26.3144 573.301 26.3144Z" fill="#96D300"/>
<path d="M573.301 35.3152C554.226 35.3152 538.674 19.7908 538.674 0.688138C538.674 0.302781 538.977 0 539.362 0C539.748 0 540.051 0.302781 540.051 0.688138C540.051 19.0201 554.969 33.939 573.301 33.939C573.687 33.939 573.99 34.2417 573.99 34.6271C573.99 35.0125 573.687 35.3152 573.301 35.3152Z" fill="#96D300"/>
<g opacity="0.3">
<path opacity="0.3" d="M539.362 255.795C543.695 255.795 547.207 252.282 547.207 247.95C547.207 243.617 543.695 240.105 539.362 240.105C535.03 240.105 531.518 243.617 531.518 247.95C531.518 252.282 535.03 255.795 539.362 255.795Z" fill="white"/>
</g>
<path d="M540.051 237.132H538.674V247.922H540.051V237.132Z" fill="#789E00"/>
<path d="M539.362 252.354C541.794 252.354 543.766 250.382 543.766 247.95C543.766 245.517 541.794 243.545 539.362 243.545C536.93 243.545 534.958 245.517 534.958 247.95C534.958 250.382 536.93 252.354 539.362 252.354Z" fill="#96D300"/>
<path d="M539.362 253.042C536.555 253.042 534.27 250.757 534.27 247.95C534.27 245.142 536.555 242.857 539.362 242.857C542.17 242.857 544.455 245.142 544.455 247.95C544.455 250.757 542.17 253.042 539.362 253.042ZM539.362 244.234C537.325 244.234 535.646 245.913 535.646 247.95C535.646 249.987 537.325 251.666 539.362 251.666C541.399 251.666 543.078 249.987 543.078 247.95C543.078 245.885 541.427 244.234 539.362 244.234Z" fill="#789E00"/>
<path d="M263.832 287.834H262.456V298.624H263.832V287.834Z" fill="#789E00"/>
<path d="M263.144 303.358C264.451 303.358 265.511 302.298 265.511 300.991C265.511 299.683 264.451 298.624 263.144 298.624C261.837 298.624 260.777 299.683 260.777 300.991C260.777 302.298 261.837 303.358 263.144 303.358Z" fill="white"/>
<path d="M263.144 304.046C261.465 304.046 260.089 302.67 260.089 300.991C260.089 299.312 261.465 297.936 263.144 297.936C264.823 297.936 266.199 299.312 266.199 300.991C266.199 302.67 264.823 304.046 263.144 304.046ZM263.144 299.312C262.208 299.312 261.465 300.055 261.465 300.991C261.465 301.927 262.208 302.67 263.144 302.67C264.08 302.67 264.823 301.927 264.823 300.991C264.823 300.055 264.08 299.312 263.144 299.312Z" fill="#789E00"/>
<path d="M270.053 299.478L263.144 293.505L256.235 299.478C255.905 299.753 256.098 300.276 256.538 300.276H269.75C270.191 300.276 270.383 299.753 270.053 299.478Z" fill="#96D300"/>
<path d="M269.75 300.964H256.538C256.042 300.964 255.63 300.661 255.464 300.221C255.299 299.753 255.437 299.257 255.795 298.955L263.144 292.596L270.521 298.955C270.879 299.285 271.016 299.78 270.851 300.221C270.658 300.661 270.246 300.964 269.75 300.964ZM257.143 299.588H269.145L263.144 294.413L257.143 299.588Z" fill="#789E00"/>
<path d="M540.051 287.834H538.674V298.624H540.051V287.834Z" fill="#009300"/>
<path d="M539.362 303.358C540.67 303.358 541.729 302.298 541.729 300.991C541.729 299.683 540.67 298.624 539.362 298.624C538.055 298.624 536.995 299.683 536.995 300.991C536.995 302.298 538.055 303.358 539.362 303.358Z" fill="white"/>
<path d="M539.362 304.046C537.683 304.046 536.307 302.67 536.307 300.991C536.307 299.312 537.683 297.936 539.362 297.936C541.041 297.936 542.417 299.312 542.417 300.991C542.417 302.67 541.041 304.046 539.362 304.046ZM539.362 299.312C538.426 299.312 537.683 300.055 537.683 300.991C537.683 301.927 538.426 302.67 539.362 302.67C540.298 302.67 541.041 301.927 541.041 300.991C541.041 300.055 540.298 299.312 539.362 299.312Z" fill="#789E00"/>
<path d="M546.299 299.478L539.39 293.505L532.481 299.478C532.151 299.753 532.343 300.276 532.784 300.276H546.023C546.409 300.276 546.601 299.753 546.299 299.478Z" fill="#96D300"/>
<path d="M545.996 300.964H532.756C532.261 300.964 531.848 300.661 531.683 300.221C531.517 299.753 531.655 299.257 532.013 298.955L539.39 292.596L546.767 298.955C547.124 299.285 547.262 299.78 547.097 300.221C546.932 300.661 546.464 300.964 545.996 300.964ZM533.362 299.588H545.363L539.362 294.413L533.362 299.588Z" fill="#789E00"/>
<path d="M244.647 343.601C242.087 343.601 239.94 341.674 239.609 339.197H278.118C277.787 341.674 275.64 343.601 273.08 343.601H244.647Z" fill="#96D300"/>
<path d="M277.237 339.885C276.659 341.647 275.007 342.913 273.053 342.913H244.647C242.693 342.913 241.041 341.647 240.463 339.885H277.237ZM278.834 338.509H238.894C238.894 341.702 241.481 344.289 244.674 344.289H273.053C276.246 344.289 278.834 341.702 278.834 338.509Z" fill="#789E00"/>
<path d="M301.872 343.601C299.312 343.601 297.165 341.674 296.835 339.197H335.343C335.013 341.674 332.866 343.601 330.306 343.601H301.872Z" fill="#96D300"/>
<path d="M334.462 339.885C333.884 341.647 332.233 342.913 330.279 342.913H301.872C299.918 342.913 298.266 341.647 297.688 339.885H334.462ZM336.059 338.509H296.092C296.092 341.702 298.679 344.289 301.872 344.289H330.279C333.471 344.289 336.059 341.702 336.059 338.509Z" fill="#789E00"/>
<g opacity="0.3">
<path opacity="0.3" d="M355.217 103.716C359.549 103.716 363.062 100.204 363.062 95.8711C363.062 91.5386 359.549 88.0264 355.217 88.0264C350.884 88.0264 347.372 91.5386 347.372 95.8711C347.372 100.204 350.884 103.716 355.217 103.716Z" fill="white"/>
</g>
<path d="M355.905 85.0811H354.529V95.8711H355.905V85.0811Z" fill="#789E00"/>
<path d="M355.217 100.275C357.649 100.275 359.621 98.3032 359.621 95.8709C359.621 93.4386 357.649 91.4668 355.217 91.4668C352.784 91.4668 350.812 93.4386 350.812 95.8709C350.812 98.3032 352.784 100.275 355.217 100.275Z" fill="#96D300"/>
<path d="M355.217 100.963C352.409 100.963 350.125 98.6786 350.125 95.871C350.125 93.0634 352.409 90.7788 355.217 90.7788C358.024 90.7788 360.309 93.0634 360.309 95.871C360.309 98.6786 358.024 100.963 355.217 100.963ZM355.217 92.1551C353.18 92.1551 351.501 93.8341 351.501 95.871C351.501 97.9079 353.18 99.587 355.217 99.587C357.254 99.587 358.933 97.9079 358.933 95.871C358.933 93.8341 357.281 92.1551 355.217 92.1551Z" fill="#789E00"/>
</g>
<defs>
<clipPath id="clip0">
<rect width="588" height="405.864" fill="white"/>
</clipPath>
</defs>
</svg>
