<svg width="4601" height="1325" viewBox="0 0 4601 1325" fill="none" xmlns="http://www.w3.org/2000/svg">
<line y1="658" x2="4601" y2="658" stroke="white" stroke-width="10"/>
<rect x="838" y="501" width="311" height="481" fill="white"/>
<rect x="3202" y="396" width="366" height="586" fill="white"/>
<rect x="3237" y="443" width="50" height="55" fill="#619FD6"/>
<rect x="3326" y="443" width="50" height="55" fill="#619FD6"/>
<rect x="3415" y="443" width="50" height="55" fill="#619FD6"/>
<rect x="3504" y="443" width="50" height="55" fill="#619FD6"/>
<rect x="3504" y="539" width="50" height="55" fill="#619FD6"/>
<rect x="3504" y="635" width="50" height="55" fill="#619FD6"/>
<rect x="3504" y="731" width="50" height="55" fill="#619FD6"/>
<rect x="3415" y="539" width="50" height="55" fill="#619FD6"/>
<rect x="3415" y="635" width="50" height="55" fill="#619FD6"/>
<rect x="3326" y="539" width="50" height="55" fill="#619FD6"/>
<rect x="1064" y="537" width="50" height="55" fill="#619FD6"/>
<rect x="969" y="537" width="50" height="55" fill="#619FD6"/>
<rect x="874" y="537" width="50" height="55" fill="#619FD6"/>
<rect x="1064" y="622" width="50" height="55" fill="#619FD6"/>
<rect x="969" y="622" width="50" height="55" fill="#619FD6"/>
<rect x="874" y="622" width="50" height="55" fill="#619FD6"/>
<rect x="1064" y="707" width="50" height="55" fill="#619FD6"/>
<line x1="3258.3" y1="352.768" x2="3216.77" y2="394.295" stroke="white" stroke-width="5"/>
<line x1="3214.65" y1="391.646" x2="3255.65" y2="350.646" stroke="#619FD6"/>
<line x1="3311.3" y1="352.768" x2="3269.77" y2="394.295" stroke="white" stroke-width="5"/>
<line x1="3267.65" y1="391.646" x2="3308.65" y2="350.646" stroke="#619FD6"/>
<line x1="3369.3" y1="352.768" x2="3327.77" y2="394.295" stroke="white" stroke-width="5"/>
<line x1="3325.65" y1="391.646" x2="3366.65" y2="350.646" stroke="#619FD6"/>
<line x1="3432.3" y1="352.768" x2="3390.77" y2="394.295" stroke="white" stroke-width="5"/>
<line x1="3388.65" y1="391.646" x2="3429.65" y2="350.646" stroke="#619FD6"/>
<line x1="3487.3" y1="352.768" x2="3445.77" y2="394.295" stroke="white" stroke-width="5"/>
<line x1="3443.65" y1="391.646" x2="3484.65" y2="350.646" stroke="#619FD6"/>
<line x1="889.295" y1="457.768" x2="847.768" y2="499.295" stroke="white" stroke-width="5"/>
<line x1="845.646" y1="496.646" x2="886.646" y2="455.646" stroke="#619FD6"/>
<line x1="946.295" y1="457.768" x2="904.768" y2="499.295" stroke="white" stroke-width="5"/>
<line x1="902.646" y1="496.646" x2="943.646" y2="455.646" stroke="#619FD6"/>
<line x1="1012.3" y1="457.768" x2="970.768" y2="499.295" stroke="white" stroke-width="5"/>
<line x1="968.646" y1="496.646" x2="1009.65" y2="455.646" stroke="#619FD6"/>
<line x1="1076.3" y1="457.768" x2="1034.77" y2="499.295" stroke="white" stroke-width="5"/>
<line x1="1032.65" y1="496.646" x2="1073.65" y2="455.646" stroke="#619FD6"/>
</svg>
